<svg width="95" height="95" viewBox="0 0 95 95" fill="none" xmlns="http://www.w3.org/2000/svg">
<rect width="95" height="95" fill="white"/>
<path d="M46.9995 10.3818C47.8557 10.3818 48.5498 9.68765 48.5498 8.83149V2.63016C48.5498 1.77399 47.8557 1.07983 46.9995 1.07983C46.1433 1.07983 45.4492 1.77399 45.4492 2.63016V8.83149C45.4492 9.68765 46.1432 10.3818 46.9995 10.3818Z" fill="#00A8E2"/>
<path d="M27.8282 8.18345L30.9288 13.5522C31.3521 14.2966 32.2985 14.5569 33.0429 14.1337C33.7873 13.7104 34.0475 12.7639 33.6242 12.0195C33.621 12.0136 33.6175 12.0077 33.614 12.0017L30.5133 6.63293C30.0901 5.88857 29.1436 5.62831 28.3993 6.05156C27.6549 6.47479 27.3947 7.42127 27.8179 8.16563C27.8212 8.17163 27.8246 8.17764 27.8282 8.18345Z" fill="#00A8E2"/>
<path d="M15.3271 21.7913C15.333 21.7948 15.3389 21.7981 15.3449 21.8016L20.7138 24.9023C21.4525 25.3352 22.4022 25.0875 22.8351 24.3488C23.2681 23.6101 23.0204 22.6603 22.2817 22.2274C22.2758 22.2239 22.2699 22.2205 22.2639 22.2171L16.895 19.1164C16.1563 18.6835 15.2065 18.9311 14.7737 19.6699C14.3407 20.4084 14.5884 21.3584 15.3271 21.7913Z" fill="#00A8E2"/>
<path d="M19.0937 38.2879C19.0937 37.4317 18.3996 36.7375 17.5434 36.7375H11.3421C10.4859 36.7375 9.79175 37.4317 9.79175 38.2879C9.79175 39.144 10.4859 39.8382 11.3421 39.8382H17.5434C18.3996 39.8382 19.0937 39.144 19.0937 38.2879Z" fill="#00A8E2"/>
<path d="M20.7319 51.663C20.7258 51.6665 20.7198 51.6699 20.7138 51.6735L15.345 54.7741C14.6007 55.1972 14.3403 56.1436 14.7633 56.888C15.1864 57.6324 16.1328 57.8928 16.8772 57.4697C16.8832 57.4662 16.8891 57.4628 16.8952 57.4593L22.264 54.3586C23.0083 53.9355 23.2688 52.9891 22.8457 52.2447C22.4227 51.5003 21.4762 51.2399 20.7319 51.663Z" fill="#00A8E2"/>
<path d="M78.6724 54.7846C78.6663 54.781 78.6603 54.7776 78.6543 54.7741L73.2855 51.6735C72.547 51.2403 71.597 51.488 71.1639 52.2265C70.7308 52.9651 70.9785 53.9151 71.717 54.3482C71.7229 54.3517 71.729 54.3551 71.735 54.3586L77.1038 57.4593C77.8424 57.8924 78.7923 57.6447 79.2254 56.9062C79.6585 56.1674 79.4109 55.2177 78.6724 54.7846Z" fill="#00A8E2"/>
<path d="M82.6572 36.7375H76.4558C75.5997 36.7375 74.9055 37.4317 74.9055 38.2879C74.9055 39.144 75.5997 39.8382 76.4558 39.8382H82.6572C83.5134 39.8382 84.2075 39.144 84.2075 38.2879C84.2075 37.4317 83.5134 36.7375 82.6572 36.7375Z" fill="#00A8E2"/>
<path d="M72.5119 25.1101C72.784 25.1101 73.0514 25.0384 73.2871 24.9024L78.6558 21.8017C79.4002 21.3785 79.6605 20.432 79.2373 19.6876C78.814 18.9433 77.8675 18.683 77.1231 19.1062C77.1172 19.1095 77.1113 19.1131 77.1053 19.1165L71.7366 22.2172C70.9951 22.6453 70.741 23.5935 71.1691 24.335C71.4462 24.8146 71.958 25.1101 72.5119 25.1101Z" fill="#00A8E2"/>
<path d="M60.9506 14.1203C60.951 14.1207 60.9516 14.1211 60.9522 14.1213C61.6939 14.549 62.6422 14.2945 63.0698 13.5527C63.0698 13.5525 63.07 13.5523 63.07 13.5523L66.1707 8.18349C66.6038 7.44495 66.3561 6.49498 65.6176 6.06186C64.8791 5.62874 63.9291 5.87641 63.496 6.61494C63.4925 6.62095 63.4889 6.62696 63.4855 6.63297L60.3848 12.0018C59.9562 12.743 60.2094 13.6914 60.9506 14.1203Z" fill="#00A8E2"/>
<path fill-rule="evenodd" clip-rule="evenodd" d="M50.1003 63.0933C50.9565 63.0933 51.6506 62.3991 51.6506 61.5429V44.4893H54.7513C58.1762 44.4893 60.9526 41.7129 60.9526 38.2879C60.9526 34.8631 58.1762 32.0867 54.7513 32.0867C51.3264 32.0867 48.55 34.8631 48.55 38.2879V41.3887H45.4493V38.2879C45.4493 34.8631 42.6728 32.0867 39.248 32.0867C35.8232 32.0867 33.0466 34.8631 33.0466 38.2879C33.0466 41.7129 35.8232 44.4893 39.248 44.4893H42.3486V61.5429C42.3486 62.3991 43.0428 63.0933 43.899 63.0933C44.7551 63.0933 45.4493 62.3991 45.4493 61.5429V44.4893H48.55V61.5429C48.55 62.3991 49.2439 63.0933 50.1003 63.0933ZM51.6506 38.2879C51.6506 36.5754 53.0388 35.1873 54.7513 35.1873C56.4638 35.1873 57.852 36.5754 57.852 38.2879C57.852 40.0005 56.4638 41.3887 54.7513 41.3887H51.6506V38.2879ZM39.248 41.3887H42.3486V38.2879C42.3486 36.5754 40.9606 35.1873 39.248 35.1873C37.5354 35.1873 36.1474 36.5754 36.1474 38.2879C36.1474 40.0005 37.5354 41.3887 39.248 41.3887Z" fill="#00A8E2"/>
<path d="M48.2042 13.512C34.5204 12.8546 22.8945 23.4145 22.2372 37.0983C21.8606 44.9337 25.2126 52.4853 31.2761 57.4623C32.3689 58.3183 33.0191 59.6202 33.0467 61.0079V64.6434C33.0548 66.6073 34.2956 68.3545 36.1473 69.0091V70.8448C36.1513 71.9925 36.5823 73.0979 37.3566 73.9454C35.7442 75.698 35.7442 78.394 37.3566 80.1467C35.6329 82.0361 35.7675 84.9651 37.6569 86.6887C38.5152 87.4716 39.6365 87.9034 40.7982 87.8984C41.6328 87.9202 42.3271 87.2614 42.3487 86.4269C42.3574 86.1013 42.2604 85.7815 42.0726 85.5155C42.0236 85.4207 41.9655 85.3308 41.899 85.2473C41.7715 85.1306 41.6259 85.0353 41.468 84.9651C41.423 84.9419 41.3781 84.9233 41.3316 84.9047C41.1746 84.8475 41.0101 84.8145 40.8432 84.807C40.8277 84.807 40.8138 84.7977 40.7982 84.7977C39.9421 84.7977 39.2479 84.1035 39.2479 83.2474C39.2479 82.3912 39.9421 81.6971 40.7982 81.6971H46.9996C47.8558 81.6971 48.5499 81.0029 48.5499 80.1467C48.5499 79.2906 47.8558 78.5964 46.9996 78.5964H40.7982C39.9421 78.5964 39.2479 77.9022 39.2479 77.046C39.2479 76.1898 39.9421 75.4957 40.7982 75.4957H46.9996C47.8558 75.4957 48.5499 74.8016 48.5499 73.9454C48.5499 73.0892 47.8558 72.3951 46.9996 72.3951H40.7982C39.9421 72.3951 39.2479 71.7009 39.2479 70.8448V69.2944H46.9996C47.8558 69.2944 48.5499 68.6002 48.5499 67.744C48.5499 66.8879 47.8558 66.1937 46.9996 66.1937H37.6976C36.8414 66.1937 36.1473 65.4996 36.1473 64.6434V61.0079C36.1219 58.6898 35.0542 56.5061 33.2404 55.0624C23.9795 47.4514 22.6421 33.774 30.2531 24.5131C34.6069 19.2157 41.2077 16.2871 48.0569 16.6142C59.5114 17.2955 68.5088 26.683 68.7042 38.156C68.7598 44.755 65.7927 51.0165 60.6503 55.1522C58.85 56.6352 57.8205 58.8555 57.8519 61.1877V64.6434C57.8519 65.4996 57.1578 66.1937 56.3016 66.1937H51.6505C50.7945 66.1937 50.1002 66.8879 50.1002 67.744C50.1002 68.6002 50.7945 69.2944 51.6505 69.2944H54.7513V70.8448C54.7513 71.7009 54.057 72.3951 53.2009 72.3951H51.6505C50.7945 72.3951 50.1002 73.0892 50.1002 73.9454C50.1002 74.8016 50.7945 75.4957 51.6505 75.4957H53.2009C54.057 75.4957 54.7513 76.1898 54.7513 77.046C54.7513 77.9022 54.057 78.5964 53.2009 78.5964H51.6505C50.7945 78.5964 50.1002 79.2906 50.1002 80.1467C50.1002 81.0029 50.7945 81.6971 51.6505 81.6971H53.2009C54.057 81.6971 54.7513 82.3912 54.7513 83.2474C54.7513 84.1035 54.057 84.7977 53.2009 84.7977H45.4493C44.5931 84.7977 43.899 85.4918 43.899 86.348C43.899 87.2042 44.5931 87.8984 45.4493 87.8984H51.3855C50.5295 90.3202 47.8722 91.5895 45.4505 90.7335C44.7089 90.4716 44.0462 90.0257 43.5237 89.4379C42.9544 88.7984 41.9742 88.7414 41.3347 89.3108C40.6951 89.88 40.6382 90.8603 41.2075 91.4998C44.0429 94.6948 48.9315 94.9865 52.1265 92.1513C53.4462 90.9802 54.3259 89.3933 54.6195 87.6534C57.0475 86.8946 58.4005 84.311 57.6419 81.8831C57.4403 81.2379 57.099 80.6451 56.6426 80.1467C58.255 78.394 58.255 75.698 56.6426 73.9454C57.4168 73.0979 57.8479 71.9925 57.8519 70.8448V69.0091C59.7036 68.3545 60.9444 66.6073 60.9525 64.6434V61.1877C60.9319 59.795 61.5353 58.4657 62.5974 57.5646C68.4779 52.8371 71.8704 45.6776 71.8049 38.1328C71.5809 25.0193 61.2963 14.2905 48.2042 13.512Z" fill="#00A8E2"/>
</svg>
