<svg width="95" height="95" viewBox="0 0 95 95" fill="none" xmlns="http://www.w3.org/2000/svg">
<g clip-path="url(#clip0_261_277)">
<rect width="95" height="95" fill="transparent"/>
<path d="M82.1248 14.6525C82.5952 14.6504 83.0452 14.4604 83.3748 14.1248L86.4859 11.0275C87.1629 10.3304 87.1548 9.21904 86.4677 8.53193C85.7806 7.84481 84.669 7.83674 83.9721 8.51366L80.8331 11.6248C80.4877 11.9573 80.2925 12.4162 80.2925 12.8956C80.2925 13.375 80.4877 13.8339 80.8331 14.1664C81.1781 14.5 81.6456 14.676 82.1248 14.6525Z" fill="#5D5D5D"/>
<path d="M58.4722 14.1666C58.8038 14.5033 59.2565 14.6929 59.7291 14.6929C60.2016 14.6929 60.6545 14.5033 60.9861 14.1666C61.3186 13.8356 61.5055 13.3858 61.5055 12.9166C61.5055 12.4473 61.3186 11.9975 60.9861 11.6666L57.8749 8.55541C57.1778 7.87848 56.0665 7.88656 55.3793 8.57368C54.6922 9.26079 54.6841 10.3723 55.3611 11.0694L58.4722 14.1666Z" fill="#5D5D5D"/>
<path fill-rule="evenodd" clip-rule="evenodd" d="M81.4444 24.0695C81.4444 29.8762 76.7373 34.5834 70.9306 34.5834C65.1239 34.5834 60.4167 29.8762 60.4167 24.0695C60.4167 18.2628 65.1239 13.5557 70.9306 13.5557C76.7373 13.5557 81.4444 18.2628 81.4444 24.0695ZM77.875 24.0557C77.875 20.2203 74.766 17.1112 70.9306 17.1112C67.0952 17.1112 63.9862 20.2203 63.9862 24.0557C63.9862 27.8909 67.0952 31.0001 70.9306 31.0001C74.766 31.0001 77.875 27.8909 77.875 24.0557Z" fill="#5D5D5D"/>
<path d="M83.3751 34.0142C82.6809 33.3122 81.5492 33.3061 80.8474 34.0003C80.1455 34.6943 80.1394 35.8261 80.8334 36.528L83.9307 39.6391C84.6278 40.3161 85.7392 40.308 86.4263 39.6209C87.1134 38.9338 87.1215 37.8222 86.4445 37.1253L83.3751 34.0142Z" fill="#5D5D5D"/>
<path d="M58.4722 34.0137L55.3611 37.1248C54.6841 37.8219 54.6922 38.9333 55.3793 39.6204C56.0665 40.3075 57.1778 40.3156 57.8749 39.6387L60.9861 36.5275C61.663 35.8306 61.6549 34.719 60.9678 34.0319C60.2807 33.3448 59.1692 33.3367 58.4722 34.0137Z" fill="#5D5D5D"/>
<path d="M85 24.0694C85 25.0513 85.796 25.8473 86.7777 25.8473H91.1667C91.8367 25.9065 92.4831 25.5827 92.8363 25.0102C93.1898 24.4379 93.1898 23.715 92.8363 23.1425C92.4831 22.57 91.8367 22.2461 91.1667 22.3056H86.7638C85.7898 22.3056 85 23.0952 85 24.0694Z" fill="#5D5D5D"/>
<path d="M70.9307 9.99999C71.4008 9.99999 71.8516 9.8121 72.1828 9.47845C72.5141 9.1446 72.6982 8.69229 72.6945 8.2221V3.84712C72.7539 3.17703 72.4301 2.53078 71.8576 2.17739C71.2851 1.82401 70.5622 1.82401 69.9899 2.17739C69.4174 2.53078 69.0935 3.17703 69.153 3.84712V8.23595C69.1605 9.21249 69.9541 9.99999 70.9307 9.99999Z" fill="#5D5D5D"/>
<path d="M69.153 39.9027V44.3054C69.0935 44.9756 69.4174 45.6217 69.9899 45.9752C70.5622 46.3285 71.2851 46.3285 71.8576 45.9752C72.4301 45.6217 72.7539 44.9756 72.6945 44.3054V39.9027C72.6132 38.9852 71.8447 38.2817 70.9237 38.2817C70.0028 38.2817 69.2341 38.9852 69.153 39.9027Z" fill="#5D5D5D"/>
<path d="M50.6945 25.8473H55.0972C56.0147 25.7659 56.7182 24.9973 56.7182 24.0763C56.7182 23.1554 56.0147 22.3869 55.0972 22.3056H50.6945C50.0245 22.2461 49.3782 22.57 49.0247 23.1425C48.6714 23.715 48.6714 24.4379 49.0247 25.0102C49.3782 25.5827 50.0245 25.9065 50.6945 25.8473Z" fill="#5D5D5D"/>
<path fill-rule="evenodd" clip-rule="evenodd" d="M91.153 89.3888H66.7084V84.4167H87.3057C88.6415 84.4322 89.9074 83.8211 90.7259 82.7653C91.5441 81.7096 91.8205 80.3313 91.4724 79.0417L84.6668 54.1943C84.1547 52.3215 82.4416 51.0309 80.5001 51.0555H39.4307C37.4874 51.0261 35.7718 52.3184 35.264 54.1943L31.9168 66.5138V39.5555L38.8613 43.597C41.0565 44.8657 43.548 45.5317 46.0834 45.5276C47.3603 45.5295 48.6313 45.3565 49.8613 45.0138C50.7978 44.7442 51.347 43.7753 51.0974 42.8332C50.1226 39.1397 47.7057 35.9922 44.389 34.097L32.2224 26.9582V12.7776C32.2328 8.94934 30.7067 5.27684 27.9863 2.58323C27.2936 1.89836 26.179 1.89836 25.4863 2.58323C22.7291 5.26358 21.1545 8.93261 21.1113 12.7776V26.9861L8.80569 34.097C5.48915 35.9992 3.07311 39.1505 2.09736 42.847C1.97446 43.3003 2.03727 43.7838 2.27188 44.1903C2.5065 44.597 2.89357 44.8934 3.34736 45.0138C4.57704 45.358 5.84819 45.5309 7.12511 45.5276C9.6603 45.5297 12.1513 44.864 14.3474 43.597L21.2918 39.5832V55.9305C21.2918 56.9122 22.0878 57.7082 23.0695 57.7082C24.0515 57.7082 24.8474 56.9122 24.8474 55.9305V37.5417L26.6668 36.4999L28.4168 37.5138V89.3888H24.8751V71.9026C24.8751 70.9209 24.0792 70.1249 23.0974 70.1249C22.1155 70.1249 21.3195 70.9209 21.3195 71.9026V89.3888H3.84736C3.17727 89.3294 2.53104 89.6534 2.17765 90.2257C1.82425 90.7982 1.82425 91.5211 2.17765 92.0936C2.53104 92.6659 3.17727 92.9899 3.84736 92.9305H91.153C91.823 92.9899 92.4691 92.6659 92.8226 92.0936C93.1761 91.5211 93.1761 90.7982 92.8226 90.2257C92.4691 89.6534 91.823 89.3294 91.153 89.3888ZM29.2084 30.1667C29.214 31.2095 28.5886 32.1524 27.6255 32.5528C26.6624 32.9532 25.5528 32.7318 24.8172 31.9922C24.0817 31.2526 23.8663 30.1418 24.2718 29.1811C24.6776 28.2201 25.6238 27.5997 26.6668 27.6111C28.0695 27.6261 29.2009 28.7638 29.2084 30.1667ZM40.7501 40.5555C42.6782 41.659 44.8988 42.1438 47.1113 41.9443C46.1738 39.9388 44.6413 38.2707 42.7224 37.1667L32.639 31.3332C32.3851 32.6474 31.7011 33.8397 30.6945 34.722L40.7501 40.5555ZM26.6668 6.58319C27.928 8.40242 28.6018 10.5642 28.5974 12.7776V24.3749C27.3313 23.9493 25.9607 23.9493 24.6945 24.3749V12.7776C24.7032 10.5597 25.3917 8.39781 26.6668 6.58319ZM6.22242 41.9443C8.43934 42.144 10.6643 41.6592 12.5974 40.5555L22.6113 34.7638C21.6109 33.8742 20.9241 32.6857 20.653 31.3749L10.6113 37.1805C8.69434 38.2809 7.16223 39.944 6.22242 41.9443ZM46.7224 80.8332L47.5834 74.4444H58.2084V80.8332H46.7224ZM32.1113 80.5555C32.2453 80.7344 32.4572 80.8376 32.6807 80.8332H43.139L44.0001 74.3888H33.4863L32.0001 79.9444C31.9411 80.1544 31.982 80.3797 32.1113 80.5555ZM36.1807 64.5138H45.3474L44.4863 70.9026H34.4445L36.1807 64.5138ZM58.2084 60.9582V54.5694H50.278L49.4168 60.9582H58.2084ZM69.6807 54.5694L70.5418 60.9582H61.7501V54.5694H69.6807ZM75.4724 70.9305H85.5418L83.8057 64.5417H74.6113L75.4724 70.9305ZM71.889 70.9305H61.7501V64.5417H71.028L71.889 70.9305ZM58.2084 70.9305V64.5417H48.9307L48.0695 70.9305H58.2084ZM61.7501 74.472H72.3751L73.2363 80.8611H61.7501V74.472ZM87.3057 80.8611C87.5291 80.8655 87.7411 80.762 87.8751 80.5832V80.6388C88.0043 80.463 88.0453 80.2376 87.9863 80.0276L86.5001 74.472H75.9584L76.8195 80.8611H87.3057ZM81.2501 55.1249L82.8334 60.9861H74.1251L73.2501 54.597H80.5557C80.8793 54.5976 81.163 54.8132 81.2501 55.1249ZM46.6945 54.597H39.4307C39.107 54.5976 38.8234 54.8132 38.7363 55.1249L37.153 60.9861H45.8334L46.6945 54.597ZM31.9724 84.3611C32.2082 84.3747 32.4447 84.3747 32.6807 84.3611H53.2224V89.3332H31.9724V84.3611ZM56.778 84.4167V89.3888H63.1668V84.4167H56.778Z" fill="#5D5D5D"/>
<path d="M23.0972 65.6947C23.5674 65.6924 24.0174 65.5024 24.3472 65.1668C24.683 64.8378 24.8724 64.3872 24.8724 63.9168C24.8724 63.4467 24.683 62.9961 24.3472 62.6668C24.0174 62.3315 23.5674 62.1415 23.0972 62.1392C22.1153 62.1392 21.3193 62.9351 21.3193 63.9168C21.3193 64.8988 22.1153 65.6947 23.0972 65.6947Z" fill="#5D5D5D"/>
</g>
<defs>
<clipPath id="clip0_261_277">
<rect width="95" height="95" fill="white"/>
</clipPath>
</defs>
</svg>
