<svg width="95" height="95" viewBox="0 0 95 95" fill="none" xmlns="http://www.w3.org/2000/svg">
<g clip-path="url(#clip0_261_277)">
<rect width="95" height="95" fill="transparent"/>
<g filter="url(#filter0_i_261_277)">
<path fill-rule="evenodd" clip-rule="evenodd" d="M81.9199 56.2345L81.7777 56.3056C79.8581 54.1213 76.7426 53.436 74.0836 54.6132L73.2728 55.0541C70.5006 52.8768 66.6751 52.6282 63.6443 54.4283L57.9556 57.5431H50.5172C48.9225 57.5198 47.353 57.1409 45.9236 56.4336L44.871 55.9074C38.6171 52.8584 31.1811 53.5784 25.6283 57.7705L25.5288 57.8558L22.983 60.1031C22.1873 60.8163 21.2596 61.3671 20.2523 61.7243L18.9439 57.4576C18.7496 56.7758 18.1312 56.3018 17.4221 56.2914H5.13411C4.2454 56.3298 3.54699 57.0659 3.5555 57.9554V58.0834L7.65158 91.6621C7.74452 92.466 8.42095 93.0753 9.23011 93.0843H27.719C28.2168 93.0713 28.6812 92.8303 28.9781 92.4305C29.2753 92.0308 29.372 91.5168 29.2408 91.0363L26.9083 83.4132L34.1476 78.8336C35.0556 78.3381 36.118 78.206 37.1199 78.4638H37.2196L52.5652 81.3083C56.8183 82.0523 61.1979 81.4196 65.0667 79.5021L65.2658 79.3883L91.7901 61.1838C92.4878 60.7088 92.6883 59.7689 92.2452 59.0505C90.1328 55.4923 85.5878 54.2367 81.9483 56.2061L81.9199 56.2345ZM75.5341 57.4434C76.63 57.0033 77.8775 57.1823 78.8052 57.9127L69.3332 63.0185L69.191 63.1038C68.936 62.4978 68.6164 61.9209 68.2381 61.3831L75.5341 57.4434ZM69.9876 56.8176C68.4492 56.1908 66.7078 56.3062 65.2658 57.1305L65.1661 57.1591L63.7439 57.9554C64.4981 58.2234 65.2151 58.5867 65.8772 59.0363L69.9876 56.8176ZM10.6381 89.8416L6.94029 59.3776H16.2418L25.5147 89.8558L10.6381 89.8416ZM53.0772 78.0941C56.6244 78.7359 60.2838 78.2381 63.5307 76.6718L88.4763 59.5483C87.048 58.3447 85.0291 58.136 83.3848 59.0221L70.7839 65.8345L69.831 66.3323C69.8385 66.427 69.8385 66.5222 69.831 66.6167C69.831 67.4965 69.118 68.2096 68.2381 68.2096H68.167L59.463 67.8114C56.94 67.6952 54.4119 67.8142 51.911 68.1671C51.0895 68.2013 50.3768 67.6044 50.2663 66.7898C50.1557 65.9749 50.6834 65.2099 51.4843 65.0238C54.1743 64.6518 56.8928 64.5281 59.6052 64.6541L66.4036 64.9954C65.6606 62.4709 63.3461 60.735 60.7147 60.7287H50.5172C48.4444 60.711 46.4025 60.2248 44.5439 59.3065L43.4916 58.7518C38.3275 56.2359 32.1902 56.8178 27.591 60.2594L25.1021 62.4781C23.9609 63.4976 22.626 64.2762 21.1768 64.7678L25.9698 80.0852L32.5119 75.9607C34.1171 75.0635 36.003 74.8093 37.7883 75.2496L53.0772 78.0941Z" fill="#5D5D5D"/>
<path fill-rule="evenodd" clip-rule="evenodd" d="M15.9181 89.3443C14.4039 88.7126 13.4201 87.2301 13.4258 85.5894C13.4414 83.3596 15.2493 81.5582 17.4791 81.5503C19.1198 81.5503 20.5987 82.5394 21.2251 84.0559C21.8518 85.5723 21.5024 87.3168 20.3402 88.4749C19.1779 89.633 17.4322 89.9762 15.9181 89.3443ZM18.3467 85.5894C18.3467 85.1103 17.9582 84.7219 17.4791 84.7219C17 84.7219 16.6116 85.1103 16.6116 85.5894C16.6116 86.0687 17 86.457 17.4791 86.457C17.9582 86.457 18.3467 86.0687 18.3467 85.5894Z" fill="#5D5D5D"/>
<path fill-rule="evenodd" clip-rule="evenodd" d="M67.4276 42.9088C63.9685 48.953 57.5523 52.6975 50.5883 52.7363C43.6352 52.699 37.2289 48.9593 33.7778 42.923C30.5975 37.5102 30.5975 30.7998 33.7778 25.387C33.7727 25.3397 33.7727 25.2921 33.7778 25.2448L49.2942 3.62695C49.5854 3.19813 50.07 2.94141 50.5883 2.94141C51.1068 2.94141 51.5915 3.19813 51.8827 3.62695L67.4276 25.2448L67.5129 25.4295C70.6507 30.842 70.618 37.5273 67.4276 42.9088ZM50.5883 7.29626L36.3662 27.0368L36.3947 27.0224C33.8266 31.4615 33.8867 36.9483 36.5511 41.3301C39.4112 46.4095 44.7876 49.5524 50.6169 49.5524C56.4462 49.5524 61.8226 46.4095 64.6827 41.3301C67.3229 36.9694 67.3721 31.5152 64.8107 27.1079L50.5883 7.29626Z" fill="#5D5D5D"/>
<path d="M50.4747 44.6436C56.5486 44.6515 61.4812 39.738 61.4969 33.664C61.4969 32.7843 60.7837 32.071 59.904 32.071C59.0244 32.071 58.3111 32.7843 58.3111 33.664C58.3074 35.7374 57.4791 37.7239 56.0091 39.1859C54.539 40.648 52.548 41.4653 50.4747 41.4578C49.5949 41.4578 48.8818 42.171 48.8818 43.0507C48.8818 43.9303 49.5949 44.6436 50.4747 44.6436Z" fill="#5D5D5D"/>
</g>
</g>
<defs>
<filter id="filter0_i_261_277" x="3.55542" y="2.94141" width="88.925" height="94.1428" filterUnits="userSpaceOnUse" color-interpolation-filters="sRGB">
<feFlood flood-opacity="0" result="BackgroundImageFix"/>
<feBlend mode="normal" in="SourceGraphic" in2="BackgroundImageFix" result="shape"/>
<feColorMatrix in="SourceAlpha" type="matrix" values="0 0 0 0 0 0 0 0 0 0 0 0 0 0 0 0 0 0 127 0" result="hardAlpha"/>
<feOffset dy="4"/>
<feGaussianBlur stdDeviation="2"/>
<feComposite in2="hardAlpha" operator="arithmetic" k2="-1" k3="1"/>
<feColorMatrix type="matrix" values="0 0 0 0 0 0 0 0 0 0 0 0 0 0 0 0 0 0 0.25 0"/>
<feBlend mode="normal" in2="shape" result="effect1_innerShadow_261_277"/>
</filter>
<clipPath id="clip0_261_277">
<rect width="95" height="95" fill="white"/>
</clipPath>
</defs>
</svg>
