<svg width="95" height="95" viewBox="0 0 95 95" fill="none" xmlns="http://www.w3.org/2000/svg">
<g clip-path="url(#clip0_261_277)">
<rect width="95" height="95" fill="transparent"/>
<path fill-rule="evenodd" clip-rule="evenodd" d="M85.1655 30.9954L60.3789 23.8888V11.5242H76.1089V14.4132H73.7689C73.0325 14.4132 72.4333 15.0058 72.4255 15.742V21.2598C72.4255 22.0018 73.0269 22.6032 73.7689 22.6032H81.1211C81.8629 22.6032 82.4643 22.0018 82.4643 21.2598V15.7132C82.4565 14.977 81.8573 14.3842 81.1211 14.3842H78.7811V11.4954H84.8043C85.4777 11.5082 86.0541 11.0156 86.1463 10.3486C86.2383 9.6816 85.8171 9.051 85.1655 8.881L59.4399 1.55762H36.5599L10.8343 8.9098C10.1829 9.08 9.76149 9.7104 9.85369 10.3774C9.94569 11.0444 10.5223 11.5372 11.1955 11.5242H17.2189V14.4132H14.8789C14.1425 14.4132 13.5433 15.0058 13.5355 15.742V21.2598C13.5355 22.0018 14.1369 22.6032 14.8789 22.6032H22.2311C22.9729 22.6032 23.5743 22.0018 23.5743 21.2598V15.7132C23.5665 14.977 22.9673 14.3842 22.2311 14.3842H19.8911V11.4954H35.6211V23.8888L10.8343 30.9954C10.1829 31.1654 9.76149 31.796 9.85369 32.463C9.94569 33.13 10.5223 33.6228 11.1955 33.6098H17.2189V36.4988H14.8789C14.1425 36.4986 13.5433 37.0914 13.5355 37.8276V43.3454C13.5355 44.0872 14.1369 44.6888 14.8789 44.6888H22.2311C22.9729 44.6888 23.5743 44.0872 23.5743 43.3454V37.7988C23.5665 37.0624 22.9673 36.4698 22.2311 36.4698H19.8911V33.581H35.6211V46.7832L30.1611 65.922L24.8889 84.3098H22.2311C21.4971 84.3098 20.9021 84.9048 20.9021 85.6388V89.8276H18.1721C17.4879 89.8988 16.9679 90.4756 16.9679 91.1638C16.9679 91.8518 17.4879 92.4286 18.1721 92.4998H77.8277C78.5121 92.4286 79.0319 91.8518 79.0319 91.1638C79.0319 90.4756 78.5121 89.8988 77.8277 89.8276H75.0977V85.6388C75.0977 84.9048 74.5027 84.3098 73.7689 84.3098H71.1111L65.8533 65.9798L60.3789 46.812V33.6098H76.1089V36.4988H73.7689C73.0325 36.4986 72.4333 37.0914 72.4255 37.8276V43.3454C72.4255 44.0872 73.0269 44.6888 73.7689 44.6888H81.1211C81.8629 44.6888 82.4643 44.0872 82.4643 43.3454V37.7988C82.4565 37.0624 81.8573 36.4698 81.1211 36.4698H78.7811V33.581H84.8043C85.4777 33.5938 86.0541 33.1012 86.1463 32.4342C86.2383 31.7672 85.8171 31.1366 85.1655 30.9666V30.9954ZM79.7777 17.0566V19.9454H75.0977V17.0566H79.7777ZM75.2711 8.9388L60.3789 4.6054V8.9388H75.2711ZM20.9021 17.0566V19.9454H16.2221V17.0566H20.9021ZM20.9021 42.0166V39.1276H16.2221V42.0166H20.9021ZM38.2355 4.172H57.7065V8.8666H38.2933L38.2355 4.172ZM57.6489 22.4442V11.5242H41.3699L57.6489 22.4442ZM38.2355 12.6942L38.2933 12.7328V23.5854H54.5721L38.2933 12.7328V12.6942H38.2355ZM57.7065 26.2576H38.2355L38.2933 30.9376H57.7065V26.2576ZM35.6789 64.9832L47.9999 56.3166L60.3211 64.9832H35.6789ZM47.9999 73.1154L58.9055 67.6554H37.0943L47.9999 73.1154ZM41.1965 48.3288H54.8033L47.9999 53.0954L41.1965 48.3288ZM57.7065 44.501V33.6098H41.3699L57.7065 44.501ZM38.2933 34.7798L54.6299 45.671H38.2933V34.7798ZM35.6211 4.5332L20.7289 8.8666H35.6211V4.5332ZM20.7289 30.9376L35.6211 26.691V30.9376H20.7289ZM45.6743 54.7276L37.7299 49.1666L33.7577 63.0766L45.6743 54.7276ZM32.2843 68.2332L45.0099 74.6032L28.0377 83.111L32.2843 68.2332ZM72.4255 87.011H70.0855V86.982H44.4755C43.7911 86.9108 43.2713 86.334 43.2713 85.646C43.2713 84.958 43.7911 84.381 44.4755 84.3098H64.4233L47.9999 76.091L31.5765 84.3388H38.5243C39.0349 84.2856 39.5311 84.528 39.8029 84.9634C40.0747 85.3988 40.0747 85.951 39.8029 86.3864C39.5311 86.8218 39.0349 87.0642 38.5243 87.011H23.5743V89.8998H72.4255V87.011ZM67.9621 83.111L50.9899 74.6032L63.7155 68.2332L67.9621 83.111ZM50.2677 54.742L62.1843 63.091L58.2121 49.181L50.2677 54.742ZM60.3789 30.9376V26.691L75.2711 30.9376H60.3789ZM79.7777 42.0166V39.1276H75.0977V42.0166H79.7777Z" fill="#5D5D5D"/>
</g>
<defs>
<clipPath id="clip0_261_277">
<rect width="95" height="95" fill="white"/>
</clipPath>
</defs>
</svg>
