<svg width="95" height="95" viewBox="0 0 95 95" fill="none" xmlns="http://www.w3.org/2000/svg">
<g clip-path="url(#clip0_261_277)">
<rect width="95" height="95" fill="transparent"/>
<path fill-rule="evenodd" clip-rule="evenodd" d="M2.53782 17.5269C2.75489 21.5575 6.07486 24.7209 10.1111 24.7433H23.6289C27.6653 24.7209 30.9852 21.5575 31.2024 17.5269C31.4195 13.4964 28.4585 9.99464 24.4479 9.53891C24.0094 5.68529 20.7486 2.77441 16.87 2.77441C12.9916 2.77441 9.73075 5.68529 9.29231 9.53891C5.28171 9.99464 2.32073 13.4964 2.53782 17.5269ZM6.1512 17.1167C6.1512 14.9296 7.92415 13.1567 10.1111 13.1567L11.1011 13.1322C12.1136 13.1322 12.9346 12.3114 12.9346 11.2989V10.3333C12.9346 8.14631 14.7074 6.37336 16.8946 6.37336C19.0815 6.37336 20.8546 8.14631 20.8546 10.3333V11.3233C20.8546 12.336 21.6753 13.1567 22.6879 13.1567H23.6535C25.8405 13.1567 27.6135 14.9296 27.6135 17.1167C27.6135 19.3037 25.8405 21.0767 23.6535 21.0767H10.1111C7.92415 21.0767 6.1512 19.3037 6.1512 17.1167Z" fill="#5D5D5D"/>
<path fill-rule="evenodd" clip-rule="evenodd" d="M7.03106 91.2566H88.9199C91.4378 91.2566 93.4788 89.2155 93.4788 86.6977V65.8344C93.4711 63.7035 92.3856 61.7211 90.5945 60.5666L66.7245 42.4534L66.5656 42.3555C64.6289 41.1992 62.2206 41.1721 60.2585 42.2846C58.2964 43.3972 57.0831 45.4778 57.081 47.7334V55.5555L39.701 39.031C39.6235 38.9523 39.5376 38.8826 39.4445 38.8234L39.2856 38.7255C37.3489 37.5692 34.9406 37.5421 32.9785 38.6546C31.0164 39.7672 29.8031 41.8478 29.801 44.1034V54.8344L12.5067 34.2888C12.3945 34.1521 12.2626 34.0326 12.1156 33.9344L11.9567 33.8366C10.02 32.6803 7.61162 32.6532 5.64956 33.7657C3.68748 34.8782 2.47416 36.9589 2.47217 39.2144V86.6977C2.47217 87.9069 2.95248 89.0664 3.80743 89.9214C4.66239 90.7764 5.82196 91.2566 7.03106 91.2566ZM6.18771 39.2144C6.19435 37.7841 7.3486 36.6244 8.77884 36.611C9.19017 36.614 9.59548 36.7102 9.96447 36.8923L30.2288 61.0923C30.7291 61.6902 31.5527 61.9063 32.2823 61.6311C33.0117 61.3557 33.4872 60.6494 33.4677 59.8699V44.1034C33.4647 43.1836 33.9494 42.3312 34.7414 41.8636C35.5334 41.3958 36.5139 41.3831 37.3177 41.8299L57.6432 61.2023C58.1744 61.7133 58.96 61.8565 59.6374 61.5658C60.3149 61.2752 60.7521 60.6071 60.7477 59.8699V47.7699C60.7525 46.8505 61.2399 46.0011 62.0312 45.5328C62.8225 45.0644 63.8017 45.0461 64.6099 45.4844L88.4921 63.5366L88.6388 63.6344C89.3989 64.1073 89.861 64.9392 89.861 65.8344V86.6977C89.861 87.1905 89.4616 87.5899 88.9688 87.5899H7.07995C6.58718 87.5899 6.18771 87.1905 6.18771 86.6977V39.2144Z" fill="#5D5D5D"/>
<path d="M21.0408 68.9634H20.3996C18.3153 68.9634 16.6257 70.653 16.6257 72.7372V73.3784C16.6257 75.4627 18.3153 77.1523 20.3996 77.1523H21.0408C23.125 77.1523 24.8146 75.4627 24.8146 73.3784V72.7372C24.8146 70.653 23.125 68.9634 21.0408 68.9634Z" fill="#5D5D5D"/>
<path d="M48.3206 68.9634H47.6794C45.5951 68.9634 43.9055 70.653 43.9055 72.7372V73.3784C43.9055 75.4627 45.5951 77.1523 47.6794 77.1523H48.3206C50.4048 77.1523 52.0944 75.4627 52.0944 73.3784V72.7372C52.0944 70.653 50.4048 68.9634 48.3206 68.9634Z" fill="#5D5D5D"/>
<path d="M75.6006 68.9634H74.9594C72.8752 68.9634 71.1855 70.653 71.1855 72.7372V73.3784C71.1855 75.4627 72.8752 77.1523 74.9594 77.1523H75.6006C77.6848 77.1523 79.3744 75.4627 79.3744 73.3784V72.7372C79.3744 70.653 77.6848 68.9634 75.6006 68.9634Z" fill="#5D5D5D"/>
</g>
<defs>
<clipPath id="clip0_261_277">
<rect width="95" height="95" fill="white"/>
</clipPath>
</defs>
</svg>
