<svg width="95" height="95" viewBox="0 0 95 95" fill="none" xmlns="http://www.w3.org/2000/svg">
<g clip-path="url(#clip0_261_277)">
<rect width="95" height="95" fill="transparent"/>
<path fill-rule="evenodd" clip-rule="evenodd" d="M8.90894 69.2277V75.0411H31.3929C29.0102 78.4421 27.7331 82.4979 27.7366 86.6543V92.4544H68.2633V86.6543C68.2667 82.4979 66.9897 78.4421 64.6068 75.0411H87.0908V69.2277C87.0742 60.4428 81.4404 52.6594 73.1165 49.921C77.4182 47.1243 79.3711 41.8219 77.9148 36.8927C76.4586 31.9635 71.9407 28.5835 66.8141 28.5876C66.2115 28.6066 65.6112 28.6736 65.0191 28.7877C65.0496 28.7011 65.0839 28.6127 65.1184 28.5239V28.5237C65.1743 28.3797 65.2307 28.2344 65.2716 28.0943L68.2633 27.3876V18.2944L65.2849 17.5877C64.9268 16.4109 64.4547 15.2722 63.8756 14.1876L65.4845 11.521L59.1688 5.24102L56.5094 6.8543C55.4291 6.27129 54.2933 5.79775 53.119 5.44102L52.4143 2.45435H43.5324L42.8278 5.44102C41.6534 5.79775 40.5177 6.27129 39.4371 6.8543L36.7779 5.24102L30.4622 11.5744L32.071 14.2409C31.5134 15.3106 31.0593 16.4312 30.7148 17.5877L27.7366 18.2944V27.3344L30.7148 28.0409C30.7945 28.2677 30.8878 28.5077 30.9808 28.7344C30.3873 28.6382 29.7871 28.5891 29.1858 28.5876C24.059 28.5835 19.5413 31.9635 18.0851 36.8927C16.6288 41.8219 18.5817 47.1243 22.8834 49.921C14.5595 52.6594 8.92574 60.4428 8.90894 69.2277ZM11.8076 69.2277C11.8251 64.388 13.8594 59.7763 17.4186 56.5077L23.1227 69.0809L29.2523 61.3877L35.3819 69.0809L38.0411 63.3209C38.9628 64.9378 40.2577 66.3095 41.8172 67.321C38.8646 68.2873 36.1752 69.9256 33.959 72.1077H19.0541V63.4544H16.1555V72.1611H11.8076V69.2277ZM21.6468 53.5611C20.9754 53.8886 20.3228 54.2536 19.6923 54.6544L23.7343 63.5744L27.2446 59.1743L21.6468 53.5611ZM40.7667 40.201V39.4011C41.4489 39.7061 42.1508 39.9645 42.8676 40.1744L43.5723 43.1744H52.5073L53.212 40.1744C53.9141 39.9802 54.6025 39.7397 55.2729 39.4544V40.2544C55.2895 44.1885 57.2913 47.8469 60.5915 49.9744C59.5923 50.3063 58.619 50.7119 57.6795 51.1877C55.5347 47.9765 51.9341 46.0491 48.0797 46.0491C44.2253 46.0491 40.6248 47.9765 38.4799 51.1877C37.5404 50.7119 36.5671 50.3063 35.568 49.9744C38.8681 47.8469 40.8699 44.1885 40.8865 40.2544L40.7667 40.201ZM69.7128 53.2544C69.708 52.8509 69.6633 52.4489 69.5796 52.0544C68.6745 51.9016 67.7586 51.8213 66.8407 51.8144C65.9187 51.817 64.9984 51.8927 64.0884 52.0409C64.0048 52.4401 63.9603 52.8466 63.9553 53.2544C63.9553 55.6277 65.2451 57.6143 66.8141 57.6143C68.383 57.6143 69.7128 55.6277 69.7128 53.2544ZM48 66.3209C43.2048 66.3209 39.3175 62.423 39.3175 57.6143C39.3175 52.8058 43.2048 48.9077 48 48.9077C52.7952 48.9077 56.6824 52.8058 56.6824 57.6143C56.675 62.4198 52.792 66.3137 48 66.3209ZM36.4188 57.6143C36.4255 56.2877 36.6548 54.9715 37.0969 53.7209L36.738 53.5476L31.127 59.1743L34.624 63.5744L36.5519 59.3211C36.467 58.756 36.4227 58.1857 36.4188 57.6143ZM48 69.2277C50.4343 69.2262 52.8409 69.7443 55.0602 70.7477L48 87.3077L40.9397 70.7477C43.1588 69.7443 45.5656 69.2262 48 69.2277ZM38.3868 72.1478C33.5451 75.378 30.6358 80.8229 30.635 86.6543V89.4944H34.9696V80.7878H37.8284V89.4809H45.806L38.3868 72.1478ZM65.3649 89.5476H61.0303V80.7878H58.1316V89.4944H50.1539L57.5732 72.1611C62.4262 75.3795 65.3508 80.8199 65.3649 86.6543V89.5476ZM84.1923 72.1343V69.2277H84.2721C84.2597 61.8394 79.6028 55.2619 72.6511 52.8143V53.2544C72.6511 57.2676 69.9786 60.5211 66.854 60.5211C63.7294 60.5211 61.0702 57.2543 61.0702 53.2544V52.7877C60.3251 53.0482 59.6004 53.3646 58.9028 53.7344C60.7303 58.8005 58.8212 64.4608 54.3023 67.3744C57.2549 68.3406 59.9444 69.9789 62.1603 72.1611H76.9458V63.4544H79.9109V72.1343H84.1923ZM75.5099 40.201C75.4951 45.0134 71.5955 48.9041 66.7964 48.8944C61.9973 48.8846 58.1136 44.9779 58.1184 40.1656C58.1233 35.353 62.015 31.4543 66.8141 31.4543C69.1249 31.4543 71.3409 32.3766 72.9723 34.0179C74.6038 35.6589 75.5169 37.8837 75.5099 40.201ZM33.0816 25.6144L33.2942 26.4809H33.3742C33.6723 27.6959 34.1189 28.8691 34.7038 29.9744C36.9954 31.2197 38.803 33.2013 39.8361 35.6009L40.1551 35.8011C41.4662 36.5984 42.8926 37.1877 44.3833 37.5477L45.2475 37.7609L45.8326 40.2276H50.2203L50.7921 37.7609L51.6564 37.5477C53.1472 37.1877 54.5736 36.5984 55.8845 35.8011L56.217 35.6009C57.244 33.1788 59.0638 31.18 61.3759 29.9344C61.9608 28.8291 62.4073 27.6558 62.7055 26.4411L62.9183 25.5743L65.3649 24.9876V20.5611L62.9183 19.9744L62.7055 19.1076C62.3383 17.6176 61.7464 16.1921 60.9505 14.881L60.4984 14.1209L61.8147 11.9609L58.7433 8.88101L56.6027 10.2143L55.8446 9.74759C54.5313 8.95172 53.1059 8.35836 51.6166 7.98766L50.7522 7.77443L50.1804 5.32102H45.8193L45.2475 7.77443L44.3833 7.98766C42.8939 8.35836 41.4686 8.95172 40.1551 9.74759L39.3972 10.2143L37.2566 8.88101L34.1719 11.9609L35.5015 14.1209L35.0494 14.9211C34.2535 16.2322 33.6616 17.6574 33.2942 19.1477L33.0816 20.0144L30.635 20.6009V25.0277L33.0816 25.6144ZM20.49 40.201C20.4847 36.6728 22.5998 33.4891 25.8489 32.1353C29.0977 30.7814 32.8401 31.5241 35.3298 34.0169C37.8195 36.5098 38.5659 40.2616 37.2208 43.5217C35.8757 46.7816 32.704 48.9077 29.1858 48.9077C24.3884 48.9077 20.4974 45.0117 20.49 40.201ZM29.2124 57.0143L33.7862 52.4277H33.7596C32.277 52.0256 30.7482 51.8194 29.2124 51.8144C27.671 51.817 26.1371 52.0277 24.6518 52.441L29.2124 57.0143ZM48 28.5876C50.3459 28.5931 52.4638 27.1801 53.3652 25.0083C54.2667 22.8365 53.774 20.3338 52.1171 18.6684C50.4601 17.0032 47.9658 16.5032 45.7979 17.4023C43.6299 18.3012 42.2161 20.4219 42.2161 22.7744C42.2161 25.9797 44.8035 28.5804 48 28.5876ZM50.8984 22.7744C50.8984 21.169 49.6008 19.8677 48 19.8677C46.4021 19.875 45.1087 21.1721 45.1013 22.7744C45.1013 24.3797 46.3992 25.681 48 25.681C49.6008 25.681 50.8984 24.3797 50.8984 22.7744ZM48 34.3877C54.396 34.3877 59.5809 29.1881 59.5809 22.7744C59.5809 16.3605 54.396 11.161 48 11.161C41.604 11.161 36.4188 16.3605 36.4188 22.7744C36.4262 29.1852 41.6069 34.3803 48 34.3877ZM56.6824 22.8276C56.6824 18.0191 52.7952 14.1209 48 14.1209C43.2077 14.1283 39.3249 18.0222 39.3175 22.8276C39.3175 27.6363 43.2048 31.5344 48 31.5344C52.7952 31.5344 56.6824 27.6363 56.6824 22.8276Z" fill="#5D5D5D"/>
</g>
<defs>
<clipPath id="clip0_261_277">
<rect width="95" height="95" fill="white"/>
</clipPath>
</defs>
</svg>
