<svg width="65" height="65" viewBox="0 0 65 65" fill="none" xmlns="http://www.w3.org/2000/svg">
<path fill-rule="evenodd" clip-rule="evenodd" d="M11.3257 44.54V47.6889H23.5045C22.2139 49.5311 21.5221 51.728 21.524 53.9794V57.1211H43.476V53.9794C43.4778 51.728 42.7861 49.5311 41.4954 47.6889H53.6742V44.54C53.6652 39.7815 50.6136 35.5655 46.1048 34.0822C48.4349 32.5673 49.4927 29.6952 48.7039 27.0252C47.9151 24.3552 45.4679 22.5244 42.691 22.5266C42.3646 22.5369 42.0394 22.5732 41.7187 22.635C41.7352 22.5881 41.7538 22.5402 41.7725 22.4921L41.7725 22.492C41.8028 22.414 41.8333 22.3353 41.8555 22.2594L43.476 21.8766V16.9511L41.8627 16.5683C41.6687 15.9309 41.413 15.3141 41.0993 14.7266L41.9708 13.2822L38.5498 9.88054L37.1093 10.7544C36.5241 10.4386 35.9089 10.1821 35.2728 9.98887L34.8911 8.37109H30.0801L29.6984 9.98887C29.0623 10.1821 28.4471 10.4386 27.8618 10.7544L26.4214 9.88054L23.0004 13.3111L23.8718 14.7555C23.5698 15.3349 23.3238 15.9419 23.1372 16.5683L21.524 16.9511V21.8478L23.1372 22.2305C23.1804 22.3533 23.2309 22.4833 23.2813 22.6061C22.9598 22.554 22.6347 22.5274 22.309 22.5266C19.532 22.5244 17.0849 24.3552 16.2961 27.0252C15.5073 29.6952 16.5651 32.5673 18.8952 34.0822C14.3864 35.5655 11.3348 39.7815 11.3257 44.54ZM12.8958 44.54C12.9053 41.9185 14.0072 39.4205 15.9351 37.65L19.0248 44.4605L22.345 40.2933L25.6652 44.4605L27.1056 41.3405C27.6049 42.2163 28.3063 42.9593 29.151 43.5072C27.5517 44.0306 26.0949 44.918 24.8945 46.1H16.821V41.4128H15.2509V46.1289H12.8958V44.54ZM18.2254 36.0539C17.8617 36.2313 17.5082 36.429 17.1667 36.6461L19.3561 41.4778L21.2575 39.0944L18.2254 36.0539ZM28.582 28.8172V28.3839C28.9515 28.5491 29.3317 28.6891 29.72 28.8028L30.1017 30.4278H34.9415L35.3232 28.8028C35.7035 28.6976 36.0764 28.5673 36.4395 28.4128V28.8461C36.4485 30.9771 37.5328 32.9587 39.3204 34.1111C38.7792 34.2909 38.252 34.5106 37.7431 34.7683C36.5813 33.0289 34.631 31.9849 32.5432 31.9849C30.4554 31.9849 28.5051 33.0289 27.3433 34.7683C26.8344 34.5106 26.3072 34.2909 25.766 34.1111C27.5536 32.9587 28.6379 30.9771 28.6469 28.8461L28.582 28.8172ZM44.2611 35.8878C44.2585 35.6692 44.2343 35.4515 44.189 35.2378C43.6987 35.155 43.2026 35.1115 42.7054 35.1078C42.206 35.1092 41.7075 35.1502 41.2146 35.2305C41.1693 35.4467 41.1452 35.6669 41.1425 35.8878C41.1425 37.1733 41.8411 38.2494 42.691 38.2494C43.5408 38.2494 44.2611 37.1733 44.2611 35.8878ZM32.5 42.9655C29.9026 42.9655 27.797 40.8541 27.797 38.2494C27.797 35.6448 29.9026 33.5333 32.5 33.5333C35.0974 33.5333 37.203 35.6448 37.203 38.2494C37.199 40.8524 35.0957 42.9616 32.5 42.9655ZM26.2269 38.2494C26.2305 37.5308 26.3547 36.8179 26.5942 36.1405L26.3998 36.0466L23.3605 39.0944L25.2547 41.4778L26.299 39.1739C26.253 38.8678 26.229 38.5589 26.2269 38.2494ZM32.5 44.54C33.8186 44.5392 35.1222 44.8198 36.3243 45.3633L32.5 54.3333L28.6757 45.3633C29.8777 44.8198 31.1814 44.5392 32.5 44.54ZM27.2929 46.1217C24.6703 47.8714 23.0944 50.8207 23.094 53.9794V55.5178H25.4419V50.8017H26.9904V55.5105H31.3116L27.2929 46.1217ZM41.906 55.5466H39.5581V50.8017H37.988V55.5178H33.6667L37.6855 46.1289C40.3142 47.8722 41.8984 50.8191 41.906 53.9794V55.5466ZM52.1042 46.1144V44.54H52.1474C52.1407 40.538 49.6182 36.9752 45.8527 35.6494V35.8878C45.8527 38.0616 44.4051 39.8239 42.7126 39.8239C41.0201 39.8239 39.5797 38.0544 39.5797 35.8878V35.635C39.1761 35.7761 38.7836 35.9475 38.4057 36.1478C39.3956 38.8919 38.3615 41.9579 35.9138 43.5361C37.5131 44.0595 38.9699 44.9469 40.1702 46.1289H48.179V41.4128H49.7851V46.1144H52.1042ZM47.4012 28.8172C47.3932 31.4239 45.2809 33.5314 42.6814 33.5261C40.0819 33.5208 37.9782 31.4047 37.9808 28.798C37.9835 26.1912 40.0915 24.0794 42.691 24.0794C43.9427 24.0794 45.143 24.579 46.0267 25.468C46.9104 26.3569 47.405 27.562 47.4012 28.8172ZM24.4192 20.9161L24.5344 21.3855H24.5777C24.7392 22.0436 24.9811 22.6791 25.2979 23.2778C26.5392 23.9523 27.5183 25.0257 28.0779 26.3255L28.2507 26.4339C28.9609 26.8658 29.7335 27.185 30.541 27.38L31.0091 27.4955L31.326 28.8316H33.7027L34.0124 27.4955L34.4806 27.38C35.2881 27.185 36.0607 26.8658 36.7708 26.4339L36.9509 26.3255C37.5072 25.0135 38.4929 23.9308 39.7453 23.2561C40.0621 22.6574 40.304 22.0219 40.4655 21.3639L40.5808 20.8944L41.906 20.5766V18.1789L40.5808 17.8611L40.4655 17.3916C40.2666 16.5845 39.946 15.8124 39.5149 15.1022L39.27 14.6905L39.983 13.5205L38.3193 11.8522L37.1598 12.5744L36.7492 12.3216C36.0378 11.8905 35.2657 11.5691 34.459 11.3683L33.9908 11.2528L33.6811 9.92387H31.3188L31.0091 11.2528L30.541 11.3683C29.7342 11.5691 28.9622 11.8905 28.2507 12.3216L27.8402 12.5744L26.6807 11.8522L25.0098 13.5205L25.73 14.6905L25.4851 15.1239C25.054 15.8341 24.7334 16.6061 24.5344 17.4133L24.4192 17.8828L23.094 18.2005V20.5983L24.4192 20.9161ZM17.5988 28.8172C17.5959 26.9061 18.7416 25.1816 20.5015 24.4483C22.2613 23.7149 24.2884 24.1172 25.637 25.4675C26.9856 26.8178 27.3899 28.85 26.6613 30.6159C25.9327 32.3817 24.2147 33.5333 22.309 33.5333C19.7104 33.5333 17.6028 31.423 17.5988 28.8172ZM22.3234 37.9244L24.8009 35.44H24.7865C23.9834 35.2222 23.1553 35.1105 22.3234 35.1078C21.4885 35.1092 20.6576 35.2233 19.8531 35.4472L22.3234 37.9244ZM32.5 22.5266C33.7707 22.5296 34.9179 21.7642 35.4062 20.5878C35.8945 19.4114 35.6276 18.0558 34.7301 17.1537C33.8326 16.2517 32.4815 15.9809 31.3072 16.4679C30.1329 16.9548 29.3671 18.1035 29.3671 19.3778C29.3671 21.114 30.7686 22.5227 32.5 22.5266ZM34.07 19.3778C34.07 18.5082 33.3671 17.8033 32.5 17.8033C31.6345 17.8073 30.9339 18.5099 30.9299 19.3778C30.9299 20.2473 31.6329 20.9522 32.5 20.9522C33.3671 20.9522 34.07 20.2473 34.07 19.3778ZM32.5 25.6683C35.9645 25.6683 38.773 22.8519 38.773 19.3778C38.773 15.9036 35.9645 13.0872 32.5 13.0872C29.0355 13.0872 26.2269 15.9036 26.2269 19.3778C26.2309 22.8503 29.0371 25.6643 32.5 25.6683ZM37.203 19.4066C37.203 16.802 35.0974 14.6905 32.5 14.6905C29.9042 14.6945 27.801 16.8037 27.797 19.4066C27.797 22.0113 29.9026 24.1228 32.5 24.1228C35.0974 24.1228 37.203 22.0113 37.203 19.4066Z" fill="#5D5D5D"/>
</svg>
