<svg width="95" height="95" viewBox="0 0 95 95" fill="none" xmlns="http://www.w3.org/2000/svg">
<g clip-path="url(#clip0_261_277)">
<rect width="95" height="95" fill="transparent"/>
<path fill-rule="evenodd" clip-rule="evenodd" d="M8.90647 60.4H81.4533V42.2667H84.4799V67.96C84.4725 72.1301 81.09 75.5067 76.9199 75.5067H58.0932L61.3332 83.0667H67.8399C70.3435 83.0667 72.3732 85.0962 72.3732 87.5999C72.3732 90.1037 70.3435 92.1333 67.8399 92.1333H22.5065C20.0028 92.1333 17.9733 90.1037 17.9733 87.5999C17.9733 85.0962 20.0028 83.0667 22.5065 83.0667H29.0665L32.3065 75.5067H13.4399C9.26979 75.5067 5.88723 72.1301 5.87988 67.96V21.1066C5.88721 16.9343 9.26757 13.554 13.4399 13.5466H46.6666V16.5732H13.4399C10.9361 16.5732 8.90647 18.6029 8.90647 21.1066V60.4ZM67.8265 89.12C68.6607 89.1127 69.3333 88.4342 69.3333 87.5999C69.3259 86.7708 68.6556 86.1005 67.8265 86.0933H22.4932C21.7123 86.1668 21.1154 86.8223 21.1154 87.6066C21.1154 88.391 21.7123 89.0466 22.4932 89.12H67.8265ZM57.9732 83.0667H32.3598L35.5998 75.5067H54.7599L57.9732 83.0667ZM13.4399 72.4932H76.8933H76.9199C79.4236 72.4932 81.4533 70.4636 81.4533 67.96V63.4266H8.90647V67.96C8.90647 70.4636 10.9361 72.4932 13.4399 72.4932Z" fill="#5D5D5D"/>
<path d="M43.6667 66.4399H46.6668V69.4667H43.6667V66.4399Z" fill="#5D5D5D"/>
<path fill-rule="evenodd" clip-rule="evenodd" d="M90.0132 17.3734C90.2377 17.9717 90.0676 18.6463 89.5865 19.0669L86.3999 21.6668V24.3334L89.3332 27.2001C89.8332 27.6138 90.0152 28.2995 89.7865 28.9069L87.7465 33.5068C87.4836 34.0931 86.8804 34.4507 86.2398 34.4001L82.1332 34.0935L80.2398 35.8935L80.3465 40.0135C80.3574 40.6536 79.9692 41.2331 79.3732 41.4668L74.6665 43.2668C74.053 43.5079 73.354 43.3183 72.9466 42.8001L70.2798 39.6801H67.6133L64.7733 42.6668C64.3323 43.1282 63.6486 43.2617 63.0665 43.0001L58.5065 40.9335C57.9202 40.6706 57.5626 40.0674 57.6132 39.4268L57.9333 35.3335L56.1198 33.4268L52 33.5335C51.3497 33.5738 50.7473 33.192 50.5066 32.5868L48.6933 27.8935C48.4688 27.2952 48.6387 26.6206 49.12 26.2001L52.24 23.5335L52.3199 20.8669L49.3332 18.0268C48.8814 17.5863 48.7487 16.9124 49 16.3335L51.0265 11.8135C51.2814 11.2265 51.8822 10.8672 52.5198 10.9202L56.6266 11.2401L58.5198 9.42682L58.4266 5.32013C58.4017 4.67992 58.7879 4.09515 59.3866 3.8668L64.0932 2.05347C64.6871 1.82707 65.3593 1.99779 65.7732 2.48013L68.44 5.61341H71.1065L73.9465 2.62681C74.3862 2.1645 75.068 2.02603 75.6532 2.28014L80.2533 4.33347C80.8409 4.57657 81.2102 5.16522 81.1732 5.80005L80.8666 9.90682L82.6666 11.8001L86.7599 11.7068C87.3977 11.6793 87.98 12.0676 88.1999 12.6668L90.0132 17.3734ZM86.4933 28.6534L83.8265 26.0935L83.8398 26.1201C83.5308 25.8255 83.3611 25.4136 83.3733 24.9868L83.4665 20.9869C83.4839 20.5601 83.677 20.1596 83.9999 19.8801L86.8265 17.4401L85.7733 14.7735L82.0666 14.8669C81.6381 14.8877 81.2227 14.7168 80.9332 14.4002L78.2665 11.5202C77.9626 11.22 77.8107 10.7985 77.8533 10.3735L78.1332 6.66682L75.4666 5.48012L72.9065 8.14688C72.6163 8.46369 72.2028 8.63889 71.7732 8.62689L67.7733 8.52018C67.3448 8.50928 66.9418 8.31507 66.6665 7.98682L64.2933 5.12013L61.6265 6.16005L61.72 9.88005C61.732 10.3069 61.5623 10.7189 61.2533 11.0134L58.3733 13.7468C58.0662 14.04 57.6499 14.1901 57.2266 14.1602L53.5066 13.8668L52.3332 16.5334L55 19.0935C55.3062 19.39 55.4753 19.8005 55.4665 20.2268L55.3733 24.2269C55.3624 24.6552 55.1681 25.0582 54.8399 25.3335L52.0265 27.7601L53.0665 30.4268L56.7865 30.3334C57.2133 30.3214 57.6254 30.4911 57.9198 30.8001L60.5866 33.6801C60.879 33.9929 61.0286 34.4129 61 34.8401L60.7066 38.5468L63.3732 39.7202L65.9333 37.0534C66.2209 36.7584 66.6145 36.5906 67.0265 36.5869L71.0266 36.6801C71.4532 36.6975 71.8539 36.8906 72.1332 37.2135L74.56 40.0401L77.2265 39.0002L77.1333 35.3068C77.1211 34.8799 77.2908 34.4681 77.5998 34.1734L80.4798 31.4134C80.7891 31.1153 81.2118 30.9646 81.6399 31.0001L85.3199 31.3202L86.4933 28.6534Z" fill="#5D5D5D"/>
<path fill-rule="evenodd" clip-rule="evenodd" d="M59.3111 26.4767C57.1796 20.9301 59.9473 14.7059 65.4935 12.5735C71.042 10.448 77.2637 13.2159 79.4 18.7601C81.5298 24.3072 78.76 30.5306 73.2132 32.6613C67.6664 34.7917 61.4427 32.0231 59.3111 26.4767ZM62.1752 25.4528C63.7037 29.439 68.173 31.4327 72.1602 29.9068L72.1334 29.8402C76.0914 28.3108 78.0871 23.8859 76.6135 19.9067C75.0802 15.9226 70.6083 13.9344 66.6232 15.4653C62.6379 16.9961 60.647 21.4666 62.1752 25.4528Z" fill="#5D5D5D"/>
<path d="M20.5601 30.6135L17.0934 27.1468L20.5601 23.6801L18.4134 21.5469L13.88 26.0801C13.5968 26.3629 13.4375 26.7466 13.4375 27.1468C13.4375 27.5471 13.5968 27.9309 13.88 28.2135L18.4134 32.7469L20.5601 30.6135Z" fill="#5D5D5D"/>
<path d="M32.6533 32.7469L37.1867 28.2135C37.4701 27.9309 37.6292 27.5471 37.6292 27.1468C37.6292 26.7466 37.4701 26.3629 37.1867 26.0801L32.6533 21.5469L30.5066 23.6801L33.9733 27.1468L30.5066 30.6135L32.6533 32.7469Z" fill="#5D5D5D"/>
<path d="M22.5601 32.8399L25.5866 20.7598L28.52 21.4931L25.4934 33.5732L22.5601 32.8399Z" fill="#5D5D5D"/>
<path d="M13.4399 36.2134H16.4665V39.2402H13.4399V36.2134Z" fill="#5D5D5D"/>
<path d="M19.4934 36.2134H48.2V39.2402H19.4934V36.2134Z" fill="#5D5D5D"/>
<path d="M13.4399 42.2664H16.4665V45.2798H13.4399V42.2664Z" fill="#5D5D5D"/>
<path d="M19.4934 42.2664H52.7334V45.2798H19.4934V42.2664Z" fill="#5D5D5D"/>
<path d="M13.4399 48.3333H16.4665V51.3598H13.4399V48.3333Z" fill="#5D5D5D"/>
<path d="M19.4934 48.3333H57.3333V51.3598H19.4934V48.3333Z" fill="#5D5D5D"/>
<path d="M13.4399 54.3599H16.4665V57.3732H13.4399V54.3599Z" fill="#5D5D5D"/>
<path d="M19.4934 54.3599H64.8266V57.3732H19.4934V54.3599Z" fill="#5D5D5D"/>
<path d="M67.8533 54.3599H70.8666V57.3732H67.8533V54.3599Z" fill="#5D5D5D"/>
<path d="M66.3335 48.3333H69.3335V51.3598H66.3335V48.3333Z" fill="#5D5D5D"/>
<path d="M60.2935 48.3333H63.32V51.3598H60.2935V48.3333Z" fill="#5D5D5D"/>
<path d="M73.8933 54.3599H76.9199V57.3732H73.8933V54.3599Z" fill="#5D5D5D"/>
</g>
<defs>
<clipPath id="clip0_261_277">
<rect width="95" height="95" fill="white"/>
</clipPath>
</defs>
</svg>
