<svg width="95" height="95" viewBox="0 0 95 95" fill="none" xmlns="http://www.w3.org/2000/svg">
<g clip-path="url(#clip0_261_277)">
<rect width="95" height="95" fill="transparent"/>
<path fill-rule="evenodd" clip-rule="evenodd" d="M89.3335 78.5735H85.9602V13.4002C85.9602 12.4723 85.208 11.7202 84.2802 11.7202H71.9069V5.66682C71.9104 5.22021 71.7344 4.79081 71.4188 4.47497C71.1029 4.15913 70.6735 3.98329 70.2269 3.98687H25.7735C25.3268 3.98329 24.8973 4.15913 24.5815 4.47497C24.2658 4.79081 24.0898 5.22021 24.0935 5.66682V11.7069H11.72C11.2746 11.7069 10.8472 11.8839 10.5322 12.1989C10.2171 12.514 10.04 12.9412 10.04 13.3869V78.5735H6.66675C5.73895 78.5735 4.98679 79.3258 4.98679 80.2535V88.2536C4.96475 88.7116 5.13242 89.1584 5.45032 89.489C5.76821 89.8195 6.20823 90.0045 6.66675 90.0002H40.3469C41.1706 90.0235 41.8988 89.4678 42.0935 88.6669C42.1807 88.179 42.0463 87.6776 41.7267 87.2989C41.4073 86.9201 40.9356 86.7032 40.4401 86.7069H9.84011C9.02282 86.7069 8.36005 86.0443 8.36005 85.2268V83.4935C8.36005 82.674 9.0206 82.0075 9.84011 82.0003H86.0667C86.4863 82.0001 86.8886 82.1677 87.184 82.4657C87.4796 82.7637 87.6437 83.1673 87.6402 83.5869V85.1336C87.6402 85.5508 87.4744 85.9511 87.1794 86.2461C86.8842 86.5411 86.4841 86.7069 86.0667 86.7069H55.6535C54.8296 86.6836 54.1015 87.2393 53.9067 88.0402C53.8196 88.5281 53.954 89.0293 54.2735 89.4082C54.5931 89.787 55.0646 90.0039 55.5601 90.0002H89.3335C90.254 90.0002 91.0002 89.254 91.0002 88.3335V80.3336C91.0219 79.8767 90.8564 79.4304 90.542 79.0983C90.2274 78.7662 89.7909 78.5766 89.3335 78.5735ZM28.6535 7.36029H67.1868C67.9232 7.36029 68.5201 7.95715 68.5201 8.69358V11.6936H27.4535V8.56029C27.4535 7.89752 27.9908 7.36029 28.6535 7.36029ZM37.5867 78.5735H46.3201V58.2268C41.291 59.0546 37.5974 63.3968 37.5867 68.4935V78.5735ZM49.6801 78.5735V58.2268C54.7092 59.0546 58.4028 63.3968 58.4135 68.4935V78.5735H49.6801ZM61.7735 68.8935V78.5735H81.4934C81.8058 78.5772 82.1063 78.4548 82.3271 78.2338C82.5479 78.013 82.6703 77.7124 82.6668 77.4002V16.3335C82.6711 16.008 82.54 15.6957 82.3048 15.4706C82.0696 15.2456 81.7517 15.1284 81.4267 15.1468H14.5735C14.26 15.1468 13.9594 15.2724 13.739 15.4952C13.5186 15.7182 13.3965 16.02 13.4 16.3335V77.4002C13.3965 77.7124 13.5189 78.013 13.7397 78.2338C13.9605 78.4548 14.2611 78.5772 14.5735 78.5735H34.2267V68.4935C34.2332 64.7231 35.7834 61.1197 38.5166 58.5226C41.2498 55.9254 44.9276 54.5609 48.6935 54.7468C56.1147 55.2484 61.854 61.4557 61.7735 68.8935Z" fill="#5D5D5D"/>
<path fill-rule="evenodd" clip-rule="evenodd" d="M19.84 22.48H27.8399C28.2865 22.4765 28.7159 22.6523 29.0318 22.9682C29.3477 23.284 29.5234 23.7134 29.5199 24.16V32.1602C29.5234 32.6067 29.3477 33.0362 29.0318 33.352C28.7159 33.6677 28.2865 33.8437 27.8399 33.8402H19.84C19.3932 33.8437 18.9638 33.6677 18.6481 33.352C18.3322 33.0362 18.1563 32.6067 18.16 32.1602V24.16C18.1563 23.7134 18.3322 23.284 18.6481 22.9682C18.9638 22.6523 19.3932 22.4765 19.84 22.48ZM21.4666 30.4802H26.1599V25.84H21.4666V30.4802Z" fill="#5D5D5D"/>
<path fill-rule="evenodd" clip-rule="evenodd" d="M36.0001 22.48H44.0002C44.9279 22.48 45.6802 23.2322 45.6802 24.16V32.1602C45.6802 33.0879 44.9279 33.8402 44.0002 33.8402H36.0001C35.5535 33.8437 35.1241 33.6677 34.8082 33.352C34.4924 33.0362 34.3166 32.6067 34.3201 32.1602V24.16C34.3166 23.7134 34.4924 23.284 34.8082 22.9682C35.1241 22.6523 35.5535 22.4765 36.0001 22.48ZM37.5869 30.4802H42.3202L42.2935 25.84H37.5869V30.4802Z" fill="#5D5D5D"/>
<path fill-rule="evenodd" clip-rule="evenodd" d="M52 22.48H60.0931C61.0088 22.5232 61.7176 23.2975 61.6799 24.2133V32.2133C61.6834 32.6599 61.5077 33.0893 61.1918 33.4052C60.8759 33.721 60.4465 33.8968 59.9999 33.8933H52C51.5449 33.8935 51.1094 33.7092 50.7928 33.3824C50.476 33.0559 50.3054 32.6146 50.32 32.1599V24.16C50.32 23.2321 51.0721 22.48 52 22.48ZM53.7065 30.4799H58.4131V25.84H53.7065V30.4799Z" fill="#5D5D5D"/>
<path fill-rule="evenodd" clip-rule="evenodd" d="M68.2133 22.48H76.2132C76.6598 22.4765 77.0892 22.6523 77.4051 22.9682C77.721 23.284 77.8969 23.7134 77.8932 24.16V32.1602C77.8969 32.6067 77.721 33.0362 77.4051 33.352C77.0892 33.6677 76.6598 33.8437 76.2132 33.8402H68.2133C67.7665 33.8437 67.3371 33.6677 67.0214 33.352C66.7055 33.0362 66.5296 32.6067 66.5333 32.1602V24.16C66.5296 23.7134 66.7055 23.284 67.0214 22.9682C67.3371 22.6523 67.7665 22.4765 68.2133 22.48ZM69.8399 30.4802H74.5332V25.84H69.8399V30.4802Z" fill="#5D5D5D"/>
<path fill-rule="evenodd" clip-rule="evenodd" d="M19.8402 38.5997H27.8401C28.295 38.5996 28.7307 38.7838 29.0473 39.1106C29.3639 39.4374 29.5345 39.8784 29.5201 40.3331V48.3332C29.5203 48.7881 29.3361 49.2236 29.0093 49.5404C28.6827 49.857 28.2415 50.0276 27.7868 50.0132H19.7868C18.859 50.0132 18.1068 49.2609 18.1068 48.3332V40.3331C18.0919 39.869 18.2697 39.4194 18.5979 39.091C18.9263 38.7626 19.3761 38.5848 19.8402 38.5997ZM21.4668 46.5999H26.1601V41.9598H21.4668V46.5999Z" fill="#5D5D5D"/>
<path fill-rule="evenodd" clip-rule="evenodd" d="M35.9999 38.5998H43.9999C44.449 38.6103 44.8757 38.7988 45.1857 39.1239C45.4958 39.449 45.664 39.884 45.6533 40.3332V48.3331C45.65 48.7893 45.4626 49.2248 45.1338 49.541C44.805 49.8573 44.3626 50.0275 43.9066 50.0131H35.9065C34.9788 50.0131 34.2265 49.261 34.2265 48.3331V40.3332C34.2108 39.8618 34.3941 39.4055 34.7314 39.0757C35.0687 38.746 35.529 38.5734 35.9999 38.5998ZM37.5865 46.5999H42.3199L42.2933 41.9598H37.5865V46.5999Z" fill="#5D5D5D"/>
<path fill-rule="evenodd" clip-rule="evenodd" d="M52.0001 38.6001H60.0933C60.5483 38.5997 60.9838 38.7842 61.3006 39.1107C61.6173 39.4375 61.7878 39.8786 61.7734 40.3333V48.3334C61.7777 48.7979 61.5896 49.2435 61.2536 49.5642C60.9178 49.8851 60.4638 50.0525 60 50.0267H52.0001C51.0805 50.0049 50.3465 49.2531 50.3467 48.3334V40.3333C50.336 39.8843 50.5041 39.4491 50.8143 39.124C51.1243 38.7991 51.5509 38.6104 52.0001 38.6001ZM53.7067 46.6H58.4134V41.9601H53.7067V46.6Z" fill="#5D5D5D"/>
<path fill-rule="evenodd" clip-rule="evenodd" d="M68.2132 38.5997H76.2132C76.6682 38.5996 77.1038 38.7838 77.4204 39.1106C77.737 39.4374 77.9076 39.8784 77.8932 40.3331V48.3332C77.8934 48.7881 77.7091 49.2236 77.3825 49.5404C77.0558 49.857 76.6145 50.0276 76.1598 50.0132H68.1599C67.232 50.0132 66.4799 49.2609 66.4799 48.3332V40.3331C66.4649 39.869 66.6427 39.4194 66.9711 39.091C67.2994 38.7626 67.7491 38.5848 68.2132 38.5997ZM69.8399 46.5999H74.5332V41.9598H69.8399V46.5999Z" fill="#5D5D5D"/>
<path fill-rule="evenodd" clip-rule="evenodd" d="M19.84 54.72H27.8399C28.2854 54.72 28.7128 54.897 29.0279 55.2122C29.3429 55.5271 29.5199 55.9545 29.5199 56.4V64.4668C29.5234 64.9133 29.3477 65.3428 29.0318 65.6586C28.7159 65.9745 28.2865 66.1503 27.8399 66.1468H19.84C19.3932 66.1503 18.9638 65.9745 18.6481 65.6586C18.3322 65.3428 18.1563 64.9133 18.16 64.4668V56.4C18.16 55.4723 18.9121 54.72 19.84 54.72ZM21.4666 62.7868H26.1599V58.08H21.4666V62.7868Z" fill="#5D5D5D"/>
<path fill-rule="evenodd" clip-rule="evenodd" d="M68.2133 54.72H76.2132C76.6589 54.72 77.0861 54.897 77.4012 55.2122C77.7162 55.5271 77.8932 55.9545 77.8932 56.4V64.4668C77.8969 64.9133 77.721 65.3428 77.4051 65.6586C77.0892 65.9745 76.6598 66.1503 76.2132 66.1468H68.2133C67.7665 66.1503 67.3371 65.9745 67.0214 65.6586C66.7055 65.3428 66.5296 64.9133 66.5333 64.4668V56.4C66.5333 55.4723 67.2854 54.72 68.2133 54.72ZM69.8399 62.7868H74.5332V58.08H69.8399V62.7868Z" fill="#5D5D5D"/>
<path d="M47.9999 86.6402C47.552 86.6402 47.1226 86.8191 46.8073 87.137C46.4918 87.4549 46.3164 87.8856 46.3199 88.3335C46.321 89.0123 46.7303 89.6236 47.3572 89.8833C47.9844 90.1429 48.706 89.9996 49.1866 89.5202C49.6756 89.0411 49.825 88.3132 49.5641 87.6801C49.3033 87.0471 48.6844 86.6357 47.9999 86.6402Z" fill="#5D5D5D"/>
</g>
<defs>
<clipPath id="clip0_261_277">
<rect width="95" height="95" fill="white"/>
</clipPath>
</defs>
</svg>
