<svg width="95" height="95" viewBox="0 0 95 95" fill="none" xmlns="http://www.w3.org/2000/svg">
<rect width="95" height="95" fill="white"/>
<path fill-rule="evenodd" clip-rule="evenodd" d="M6.87378 69.9991V76.0063H29.9593C27.5127 79.5206 26.2015 83.7118 26.205 88.0067V94H67.8163V88.0067C67.8196 83.7118 66.5085 79.5206 64.0619 76.0063H87.1475V69.9991C87.1303 60.9215 81.3458 52.8786 72.7992 50.0489C77.216 47.1589 79.2211 41.6799 77.726 36.5863C76.2307 31.4928 71.592 28.0001 66.3282 28.0045C65.7094 28.024 65.0932 28.0932 64.4851 28.2111C64.5164 28.1218 64.5516 28.0306 64.5869 27.9389L64.587 27.9385H64.5871V27.9384V27.9383L64.5872 27.9382V27.9381V27.938C64.6446 27.7893 64.7025 27.6393 64.7445 27.4946L67.8163 26.7644V17.368L64.7583 16.6378C64.3905 15.4219 63.9057 14.2452 63.3111 13.1245L64.9629 10.3689L58.4783 3.87955L55.7479 5.54666C54.6386 4.9441 53.4724 4.45486 52.2666 4.08622L51.5431 1H42.4236L41.7 4.08622C40.4943 4.45486 39.3281 4.9441 38.2187 5.54666L35.4883 3.87955L29.0037 10.424L30.6555 13.1796C30.083 14.2847 29.6166 15.4428 29.263 16.6378L26.205 17.368V26.7093L29.263 27.4395C29.3449 27.6738 29.4405 27.9217 29.5361 28.156C28.9266 28.0565 28.3104 28.0058 27.6931 28.0045C22.4293 28.0001 17.7905 31.4928 16.2953 36.5863C14.8001 41.6799 16.8052 47.1589 21.222 50.0489C12.6754 52.8786 6.89095 60.9215 6.87378 69.9991ZM9.84992 69.9991C9.86788 64.9982 11.9567 60.2327 15.6111 56.8551L21.4677 69.8475L27.7613 61.8978L34.0548 69.8475L36.7853 63.8955C37.7319 65.5662 39.0614 66.9836 40.6624 68.0289C37.6309 69.0274 34.8695 70.7203 32.5942 72.9751H17.2903V64.0333H14.3141V73.0303H9.84992V69.9991ZM19.9524 53.8102C19.263 54.1486 18.5931 54.5258 17.9456 54.94L22.0957 64.1574L25.6999 59.6107L19.9524 53.8102ZM39.5839 40.0049V39.1783C40.2843 39.4935 41.0049 39.7604 41.7409 39.9774L42.4645 43.0773H51.6387L52.3622 39.9774C53.083 39.7767 53.7899 39.5281 54.4782 39.2334V40.06C54.4953 44.1254 56.5506 47.9057 59.9391 50.104C58.9133 50.447 57.9138 50.866 56.9493 51.3577C54.7469 48.0395 51.05 46.0479 47.0926 46.0479C43.1351 46.0479 39.4382 48.0395 37.2358 51.3577C36.2712 50.866 35.2719 50.447 34.246 50.104C37.6346 47.9057 39.6899 44.1254 39.7068 40.06L39.5839 40.0049ZM69.3043 53.4933C69.2994 53.0765 69.2537 52.6611 69.1678 52.2534C68.2384 52.0955 67.2979 52.0126 66.3555 52.0053C65.4089 52.0081 64.4639 52.0864 63.5295 52.2396C63.4437 52.652 63.398 53.0719 63.393 53.4933C63.393 55.9458 64.7172 57.9986 66.3282 57.9986C67.9391 57.9986 69.3043 55.9458 69.3043 53.4933ZM47.0106 66.9955C42.0871 66.9955 38.0958 62.9675 38.0958 57.9986C38.0958 53.0298 42.0871 49.0018 47.0106 49.0018C51.9341 49.0018 55.9254 53.0298 55.9254 57.9986C55.9179 62.9643 51.931 66.988 47.0106 66.9955ZM35.1197 57.9986C35.1266 56.6277 35.3619 55.2677 35.816 53.9755L35.4474 53.7965L29.6863 59.6107L33.2767 64.1574L35.2563 59.7622C35.1692 59.1784 35.1236 58.589 35.1197 57.9986ZM47.0106 69.9991C49.5101 69.9976 51.9812 70.533 54.2598 71.5698L47.0106 88.6818L39.7614 71.5698C42.04 70.533 44.5112 69.9976 47.0106 69.9991ZM37.1402 73.0165C32.1691 76.3545 29.1818 81.9807 29.1812 88.0067V90.9414H33.6316V81.9445H36.5668V90.9276H44.7581L37.1402 73.0165ZM64.8401 90.9965H60.3896V81.9445H57.4134V90.9414H49.2223L56.84 73.0303C61.8228 76.356 64.8257 81.9777 64.8401 88.0067V90.9965ZM84.1714 73.0027V69.9991H84.2532C84.2406 62.3646 79.459 55.5679 72.3214 53.0387V53.4933C72.3214 57.6404 69.5773 61.0022 66.3691 61.0022C63.1609 61.0022 60.4305 57.6266 60.4305 53.4933V53.0111C59.6655 53.2803 58.9216 53.6073 58.2053 53.9893C60.0816 59.2244 58.1215 65.0732 53.4817 68.084C56.5132 69.0826 59.2746 70.7755 61.5499 73.0303H76.731V64.0333H79.7754V73.0027H84.1714ZM75.2566 40.0049C75.2415 44.9777 71.2375 48.9981 66.3101 48.988C61.3825 48.9778 57.3948 44.941 57.3998 39.9682C57.4048 34.9953 61.4008 30.9667 66.3282 30.9667C68.7009 30.9667 70.976 31.9198 72.6512 33.6156C74.3264 35.3113 75.2638 37.6104 75.2566 40.0049ZM31.6931 24.932L31.9115 25.8276H31.9935C32.2997 27.0829 32.7582 28.2953 33.3586 29.4373C35.7116 30.7242 37.5675 32.7719 38.6283 35.2515L38.9559 35.4583C40.3022 36.2822 41.7666 36.891 43.2973 37.2631L44.1847 37.4835L44.7854 40.0324H49.2905L49.8776 37.4835L50.7649 37.2631C52.2956 36.891 53.7601 36.2822 55.1062 35.4583L55.4476 35.2515C56.5021 32.7486 58.3704 30.6832 60.7446 29.396C61.345 28.254 61.8035 27.0416 62.1097 25.7863L62.3281 24.8906L64.8401 24.2845V19.7102L62.3281 19.104L62.1097 18.2084C61.7326 16.6685 61.1249 15.1958 60.3077 13.8409L59.8434 13.0555L61.1951 10.8235L58.0414 7.64089L55.8435 9.01867L55.0653 8.53645C53.7167 7.71398 52.2533 7.1009 50.724 6.71778L49.8365 6.49734L49.2496 3.96223H44.7717L44.1847 6.49734L43.2973 6.71778C41.768 7.1009 40.3045 7.71398 38.9559 8.53645L38.1778 9.01867L35.9798 7.64089L32.8126 10.8235L34.1778 13.0555L33.7136 13.8823C32.8964 15.2371 32.2886 16.71 31.9115 18.2497L31.6931 19.1454L29.1812 19.7515V24.3258L31.6931 24.932ZM18.7647 40.0049C18.7592 36.3592 20.931 33.0693 24.2668 31.6703C27.6027 30.2713 31.4453 31.0388 34.0016 33.6147C36.5579 36.1907 37.3242 40.0674 35.9431 43.4362C34.5619 46.8049 31.3055 49.0018 27.6931 49.0018C22.7674 49.0018 18.7722 44.976 18.7647 40.0049ZM27.7204 57.3787L32.4167 52.6391H32.3894C30.867 52.2236 29.2974 52.0106 27.7204 52.0053C26.1378 52.0081 24.5627 52.2259 23.0378 52.6529L27.7204 57.3787ZM47.0106 28.0045C49.4193 28.01 51.594 26.5499 52.5195 24.3057C53.4451 22.0615 52.9392 19.4755 51.238 17.7546C49.5367 16.0337 46.9755 15.5172 44.7496 16.4462C42.5237 17.3751 41.072 19.5664 41.072 21.9973C41.072 25.3096 43.7286 27.9968 47.0106 28.0045ZM49.9867 21.9973C49.9867 20.3385 48.6543 18.9937 47.0106 18.9937C45.3701 19.0013 44.042 20.3417 44.0345 21.9973C44.0345 23.6562 45.367 25.0009 47.0106 25.0009C48.6543 25.0009 49.9867 23.6562 49.9867 21.9973ZM47.0106 33.9978C53.5778 33.9978 58.9015 28.625 58.9015 21.9973C58.9015 15.3697 53.5778 9.99689 47.0106 9.99689C40.4435 9.99689 35.1197 15.3697 35.1197 21.9973C35.1273 28.6219 40.4466 33.9901 47.0106 33.9978ZM55.9254 22.0525C55.9254 17.0836 51.9341 13.0555 47.0106 13.0555C42.0902 13.0632 38.1034 17.0867 38.0958 22.0525C38.0958 27.0213 42.0871 31.0494 47.0106 31.0494C51.9341 31.0494 55.9254 27.0213 55.9254 22.0525Z" fill="#00A8E2"/>
</svg>
