<svg width="95" height="95" viewBox="0 0 95 95" fill="none" xmlns="http://www.w3.org/2000/svg">
<rect width="95" height="95" fill="white"/>
<path fill-rule="evenodd" clip-rule="evenodd" d="M62.1891 66.5432C63.6964 65.1684 65.6476 64.4116 67.6857 64.4116C69.9722 64.4116 72.1667 65.379 73.7074 67.0663C76.7359 70.3843 76.5006 75.546 73.1824 78.5725C71.6765 79.9465 69.7253 80.7033 67.6893 80.7033C65.4051 80.7033 63.2106 79.7353 61.6706 78.0479C58.6406 74.735 58.873 69.5733 62.1891 66.5432ZM67.6893 77.9032C69.0251 77.9032 70.3052 77.4069 71.2942 76.5047C73.4713 74.5186 73.6255 71.1311 71.6374 68.9533C70.6267 67.8455 69.1859 67.211 67.6857 67.211C66.3485 67.211 65.0677 67.708 64.0787 68.6096C61.903 70.5979 61.751 73.9854 63.7398 76.1603C64.7513 77.2687 66.1907 77.9032 67.6893 77.9032Z" fill="#00A8E2"/>
<path fill-rule="evenodd" clip-rule="evenodd" d="M85.9251 66.7806H86.8617C88.7072 66.7806 90.2084 68.2782 90.2084 70.1195V75.4359C90.2084 77.2801 88.7072 78.7804 86.8617 78.7804H85.8222C85.6067 79.3694 85.3605 79.9473 85.0852 80.5107L85.8354 81.2566C87.1385 82.568 87.1371 84.6873 85.8369 85.9868L82.075 89.7459C81.4396 90.3766 80.6003 90.7218 79.7068 90.7218C78.8119 90.7218 77.9719 90.3753 77.3419 89.7459L76.4923 88.8971C75.9562 89.1444 75.4103 89.3653 74.8582 89.5563V90.776C74.8582 92.6195 73.3591 94.1198 71.5164 94.1198H66.1957C64.3496 94.1198 62.8484 92.6195 62.8484 90.776V89.4542C62.322 89.2625 61.8074 89.0465 61.3075 88.8082L60.3695 89.7459C59.734 90.3766 58.8947 90.7226 58.0012 90.7226C57.1056 90.7226 56.2664 90.3753 55.6363 89.7459L54.1212 88.2324H12.8621C10.0662 88.2324 7.79175 85.959 7.79175 83.1653V10.5513C7.79175 7.7576 10.0662 5.48489 12.8621 5.48489H26.9204C27.4628 4.07973 28.825 3.07812 30.4208 3.07812H50.4999C52.0957 3.07812 53.4579 4.07973 53.9995 5.48489H68.0578C70.8565 5.48489 73.1338 7.7576 73.1338 10.5513V30.493C73.1338 31.2356 72.5316 31.837 71.7883 31.837C71.0457 31.837 70.4436 31.2356 70.4436 30.493V10.5513C70.4436 9.23986 69.3734 8.17227 68.0578 8.17227H54.2534V11.5473H63.7044C65.5102 11.5473 66.9794 13.0156 66.9794 14.8195V51.4412H70.4442L70.4483 36.7715C70.4483 36.0296 71.0512 35.4281 71.7938 35.4281H71.7945C72.5371 35.4287 73.1393 36.0303 73.1393 36.7721L73.1345 51.8615C74.1607 52.4331 74.8582 53.5285 74.8582 54.785V55.7199C75.4812 55.9366 76.091 56.186 76.6841 56.4667L77.3419 55.8095C77.9719 55.1802 78.8119 54.8336 79.7068 54.8336C80.6003 54.8336 81.4396 55.1795 82.0716 55.8067L85.8369 59.5687C87.1385 60.878 87.1371 62.9979 85.8361 64.2975L85.1784 64.9545C85.4614 65.5505 85.711 66.1604 85.9251 66.7806ZM50.4999 5.76551H30.4208C29.8346 5.76551 29.3576 6.24269 29.3576 6.82892V13.2511C29.3576 13.8276 29.8443 14.3139 30.4208 14.3139H50.4999C51.0763 14.3139 51.563 13.827 51.563 13.2511V6.82892C51.563 6.24269 51.0861 5.76551 50.4999 5.76551ZM10.482 83.1653V10.5513C10.482 9.23986 11.55 8.17227 12.8621 8.17227H26.6666V11.5473H17.2156C15.4098 11.5473 13.9413 13.0156 13.9413 14.8195V50.4917C13.9413 51.2336 14.5435 51.835 15.2861 51.835C16.0294 51.835 16.6315 51.2336 16.6315 50.4917V14.8195C16.6315 14.5028 16.8993 14.2347 17.2156 14.2347H26.8022C27.2368 15.8267 28.6921 17.0012 30.42 17.0012H50.4999C52.2285 17.0012 53.6838 15.8267 54.1178 14.2347H63.7044C64.0269 14.2347 64.2891 14.4972 64.2891 14.8195V52.04C63.4193 52.6442 62.8484 53.6487 62.8484 54.785V55.8221C62.2629 56.0353 61.6844 56.2819 61.117 56.5597L60.366 55.8067C59.734 55.1795 58.894 54.8336 58.0005 54.8336C57.1056 54.8336 56.2656 55.1802 55.6357 55.8095L51.8712 59.5721C50.9763 60.4723 50.6995 61.7594 51.0395 62.8978H41.3299C40.5865 62.8978 39.9844 63.4994 39.9844 64.2419C39.9844 64.9837 40.5865 65.586 41.3299 65.586H52.529C52.3599 65.9797 52.2048 66.3784 52.0651 66.7806H50.8448C49.6773 66.7806 48.6489 67.3807 48.0503 68.2872H41.3299C40.5865 68.2872 39.9844 68.8887 39.9844 69.6313C39.9844 70.373 40.5865 70.9752 41.3299 70.9752H47.4975V75.4367C47.4975 77.2808 48.9994 78.7804 50.8448 78.7804H52.1666C52.2529 79.0173 52.346 79.2506 52.442 79.482H17.2156C16.8993 79.482 16.6315 79.2145 16.6315 78.8978L16.642 56.7757C16.642 56.0339 16.0405 55.4316 15.2972 55.4316H15.2965C14.5538 55.4316 13.9517 56.0325 13.9511 56.7743L13.9413 78.8971C13.9413 80.7017 15.4098 82.1693 17.2156 82.1693H51.2328C50.7141 83.248 50.8052 84.5469 51.5068 85.5443H12.8621C11.55 85.5443 10.482 84.4775 10.482 83.1653ZM86.8617 76.093C87.2177 76.093 87.5182 75.7923 87.5182 75.4367V70.1195C87.5182 69.7667 87.2177 69.468 86.8617 69.468H84.9371C84.3342 69.468 83.8051 69.0672 83.6417 68.4879C83.3364 67.4008 82.9039 66.3409 82.3567 65.3379C82.0709 64.8142 82.1641 64.1662 82.5861 63.7445L83.9344 62.397C84.1896 62.1421 84.1882 61.7246 83.9309 61.4663L80.1727 57.7099C80.0078 57.546 79.8096 57.5217 79.7068 57.5217C79.6046 57.5217 79.4091 57.546 79.2451 57.7099L77.8968 59.0574C77.4747 59.4791 76.8246 59.5721 76.301 59.2866C75.3067 58.7449 74.2442 58.3101 73.1421 57.9954C72.565 57.8301 72.1672 57.3029 72.1672 56.7035V54.785C72.1672 54.4293 71.869 54.1286 71.5164 54.1286H66.1957C65.8397 54.1286 65.5386 54.4293 65.5386 54.785V56.7909C65.5386 57.3842 65.1492 57.9079 64.5798 58.0781C63.5361 58.3906 62.5077 58.8289 61.5231 59.3818C60.996 59.6777 60.3375 59.5854 59.9113 59.1581L58.465 57.7079C58.3016 57.546 58.1041 57.521 58.0012 57.521C57.899 57.521 57.7029 57.546 57.5388 57.7099L53.777 61.4691C53.5274 61.7198 53.526 62.1463 53.777 62.397L55.3102 63.9293C55.7288 64.3475 55.8248 64.9893 55.5466 65.5109C55.037 66.468 54.633 67.4697 54.3472 68.4872C54.1845 69.0672 53.6554 69.468 53.0525 69.468H50.8448C50.4888 69.468 50.1877 69.7667 50.1877 70.1195V75.4367C50.1877 75.793 50.4888 76.093 50.8448 76.093H53.1345C53.7276 76.093 54.2498 76.4806 54.4223 77.0467C54.7303 78.0608 55.1385 79.0304 55.635 79.9299C55.9242 80.4536 55.8324 81.1059 55.4083 81.5289L55.1622 81.7748L55.1601 81.7769L53.777 83.1591C53.5232 83.4147 53.5219 83.8321 53.7778 84.0878L57.5395 87.8462C57.7036 88.0109 57.899 88.0352 58.0012 88.0352C58.1041 88.0352 58.3022 88.0102 58.4699 87.8434L60.0983 86.216C60.357 85.9576 60.7011 85.8222 61.0495 85.8222C61.272 85.8222 61.4952 85.877 61.6997 85.9895C62.5994 86.4862 63.5701 86.8939 64.5846 87.2023C65.1514 87.3739 65.5386 87.8962 65.5386 88.488V90.776C65.5386 91.1317 65.8397 91.4324 66.1957 91.4324H71.5164C71.8697 91.4324 72.168 91.1317 72.168 90.776V88.5699C72.168 87.9677 72.5691 87.4385 73.1498 87.276C74.1692 86.9905 75.1704 86.5876 76.1279 86.0778C76.6501 85.8 77.2932 85.8951 77.7118 86.3139L79.2451 87.8462C79.4091 88.0102 79.6052 88.0344 79.7068 88.0344C79.8096 88.0344 80.0078 88.0102 80.1754 87.8428L83.9344 84.0871C84.1896 83.8321 84.1882 83.414 83.9309 83.1557L82.4846 81.7151C82.0577 81.29 81.9659 80.6315 82.2614 80.1063C82.8045 79.1395 83.2446 78.1101 83.5673 77.046C83.7398 76.4799 84.2626 76.093 84.8543 76.093H86.8617Z" fill="#00A8E2"/>
<path fill-rule="evenodd" clip-rule="evenodd" d="M31.5941 37.5781H23.5897C21.7485 37.5781 20.25 36.1392 20.25 34.37V26.6779C20.25 24.9085 21.7478 23.469 23.5897 23.469H31.5941C31.9678 23.469 32.3267 23.5316 32.6629 23.641L35.0703 20.8109C35.5488 20.2485 36.4117 20.1656 36.9972 20.6246C37.5825 21.085 37.6696 21.9132 37.191 22.4762L34.6725 25.4362C34.8402 25.8184 34.933 26.2379 34.933 26.6779V34.37C34.933 36.1392 33.4352 37.5781 31.5941 37.5781ZM23.5897 26.1006C23.2641 26.1006 22.9887 26.3651 22.9887 26.6779V34.37C22.9887 34.6827 23.2633 34.9473 23.5889 34.9473H31.5934C31.919 34.9473 32.1936 34.6827 32.1936 34.37V28.3493L28.8143 32.3225C28.5737 32.6054 28.2211 32.7794 27.8417 32.8032L27.8396 32.8033C27.8107 32.8046 27.7823 32.806 27.7539 32.806C27.405 32.806 27.0681 32.6781 26.8125 32.4462L24.4971 30.3417C23.9478 29.8425 23.9238 29.0095 24.4433 28.4819C24.9629 27.9542 25.83 27.9311 26.3793 28.4302L27.6251 29.5624L30.5705 26.1006H23.5897Z" fill="#00A8E2"/>
<path fill-rule="evenodd" clip-rule="evenodd" d="M31.5934 54.8281H23.5889C21.7479 54.8281 20.25 53.3893 20.25 51.62V43.9281C20.25 42.1588 21.7479 40.7192 23.5889 40.7192H31.5942C31.9679 40.7192 32.3268 40.7812 32.663 40.8913L35.0704 38.0612C35.5489 37.4989 36.4111 37.4152 36.9973 37.8749C37.5826 38.3346 37.6697 39.1635 37.1905 39.7265L34.6726 42.6864C34.8397 43.0686 34.9331 43.4882 34.9331 43.9274V51.62C34.9331 53.3893 33.4346 54.8281 31.5934 54.8281ZM23.5889 43.3508C23.2641 43.3508 22.9887 43.6147 22.9887 43.9274H22.988V51.62C22.988 51.9328 23.2634 52.1973 23.5883 52.1973H31.5934C31.9184 52.1973 32.1937 51.9328 32.1937 51.62V45.5995L28.8137 49.5726C28.573 49.8562 28.2198 50.0302 27.8404 50.0533C27.8113 50.0547 27.7823 50.0561 27.7533 50.0561C27.4037 50.0561 27.0667 49.9276 26.8111 49.695L24.5007 47.5905C23.9521 47.0906 23.9288 46.2576 24.4497 45.7308C24.97 45.2038 25.8364 45.1812 26.3851 45.6811L27.6259 46.8112L30.5706 43.3508H23.5889Z" fill="#00A8E2"/>
<path fill-rule="evenodd" clip-rule="evenodd" d="M31.5934 73.0366H23.5889C21.7479 73.0366 20.25 71.5972 20.25 69.8279V62.136C20.25 60.3668 21.7479 58.928 23.5889 58.928H31.5942C31.9679 58.928 32.3268 58.9898 32.663 59.0994L35.0704 56.2693C35.5489 55.707 36.4111 55.624 36.9973 56.0837C37.5826 56.5433 37.6697 57.3722 37.1905 57.9345L34.6726 60.8944C34.8397 61.2766 34.9331 61.6962 34.9331 62.136V69.8279C34.9331 71.5972 33.4346 73.0366 31.5934 73.0366ZM23.5889 61.5587C23.2641 61.5587 22.9887 61.8232 22.9887 62.136H22.988V69.8279C22.988 70.1406 23.2634 70.4051 23.5883 70.4051H31.5934C31.9184 70.4051 32.1937 70.1406 32.1937 69.8279V63.8081L28.8137 67.7812C28.573 68.064 28.2198 68.2381 27.8404 68.2612C27.8113 68.2632 27.7823 68.2639 27.7533 68.2639C27.4037 68.2639 27.0667 68.1354 26.8111 67.9029L24.5007 65.7991C23.9521 65.2993 23.9288 64.4663 24.4497 63.9393C24.97 63.4117 25.8364 63.3899 26.3851 63.8897L27.6259 65.0199L30.5706 61.5587H23.5889Z" fill="#00A8E2"/>
<path d="M40.7215 28.9533H58.2376C58.9578 28.9533 59.5417 28.5244 59.5417 27.995C59.5417 27.4656 58.9578 27.0366 58.2376 27.0366H40.7215C40.0013 27.0366 39.4167 27.4656 39.4167 27.995C39.4167 28.524 40.0013 28.9533 40.7215 28.9533Z" fill="#00A8E2"/>
<path d="M40.7215 33.7448H58.2376C58.9578 33.7448 59.5417 33.3158 59.5417 32.7867C59.5417 32.2572 58.9578 31.8281 58.2376 31.8281H40.7215C40.0013 31.8281 39.4167 32.2572 39.4167 32.7867C39.4167 33.3158 40.0013 33.7448 40.7215 33.7448Z" fill="#00A8E2"/>
<path d="M58.2546 45.2449H41.6627C40.9512 45.2449 40.375 45.6739 40.375 46.203C40.375 46.7326 40.9512 47.1615 41.6627 47.1615H58.2546C58.9654 47.1615 59.5417 46.7326 59.5417 46.203C59.5417 45.6739 58.9654 45.2449 58.2546 45.2449Z" fill="#00A8E2"/>
<path d="M58.2546 50.0366H41.6627C40.9512 50.0366 40.375 50.4656 40.375 50.995C40.375 51.5244 40.9512 51.9533 41.6627 51.9533H58.2546C58.9654 51.9533 59.5417 51.5244 59.5417 50.995C59.5417 50.4656 58.9654 50.0366 58.2546 50.0366Z" fill="#00A8E2"/>
</svg>
