<svg width="95" height="95" viewBox="0 0 95 95" fill="none" xmlns="http://www.w3.org/2000/svg">
<g clip-path="url(#clip0_261_277)">
<rect width="95" height="95" fill="transparent"/>
<path fill-rule="evenodd" clip-rule="evenodd" d="M30.5769 70.1952V70.1406H79.493C80.6623 70.148 81.7037 69.3323 82.0754 68.1178L93.1286 32.3916C93.4183 31.468 93.2787 30.4478 92.7544 29.6581C92.2374 28.8918 91.4159 28.4444 90.5463 28.4554H20.4094L13.7849 8.03643C13.4142 6.81923 12.3738 5.99878 11.2025 6H3.21824C1.7087 6 0.723145 6.65603 0.723145 8.29611C0.723145 9.93617 1.7087 10.5922 3.21824 10.5922H10.4914C10.7334 11.3876 15.2656 26.6587 19.5299 41.0274L19.5325 41.0361L19.5374 41.0527L19.5409 41.0644C23.4059 54.0875 27.0476 66.358 27.0712 66.423C24.3267 67.7898 23.6655 69.5665 23.6655 73.12C23.6655 78.0402 26.0733 80.678 30.5769 80.678H33.7581C33.4525 81.6357 33.2966 82.6431 33.2964 83.6574C33.1796 86.9318 34.7073 90.0137 37.278 91.6889C39.8486 93.3641 43.0498 93.3641 45.6204 91.6889C48.191 90.0137 49.7188 86.9318 49.6019 83.6574C49.598 82.66 49.4376 81.6707 49.1278 80.7328H66.3813C66.0659 81.688 65.9055 82.6963 65.9074 83.7122C65.7903 86.9864 67.3181 90.0684 69.8887 91.7436C72.4593 93.4188 75.6605 93.4188 78.2311 91.7436C80.8017 90.0684 82.3297 86.9864 82.2126 83.7122C82.2126 78.7919 78.5574 76.1542 74.0663 76.1542H30.5769C29.0749 76.1542 27.8572 74.8201 27.8572 73.1748C27.8572 71.5292 29.0749 70.1952 30.5769 70.1952ZM41.3681 79.366C43.8003 79.366 45.7719 81.5261 45.7719 84.1906C45.7719 86.855 43.8003 89.0151 41.3681 89.0151C38.936 89.0151 36.9642 86.855 36.9642 84.1906C36.9642 82.9111 37.4282 81.6838 38.2542 80.7791C39.0801 79.8743 40.2002 79.366 41.3681 79.366ZM78.208 84.1906C78.208 81.5261 76.2364 79.366 73.8043 79.366C72.6363 79.366 71.5162 79.8743 70.6903 80.7791C69.8644 81.6838 69.4004 82.9111 69.4004 84.1906C69.4004 86.855 71.3721 89.0151 73.8043 89.0151C76.2364 89.0151 78.208 86.855 78.208 84.1906ZM21.9314 32.8973L88.0511 33.0476L78.7944 65.5484H31.288L21.9314 32.8973ZM71.2592 55.9812C70.8915 57.5719 69.419 58.5372 67.9658 58.1407C67.2648 57.9537 66.6615 57.4666 66.291 56.7884C65.9206 56.1103 65.8138 55.2976 65.9946 54.5326L68.7018 42.6146C69.0669 41.0183 70.5443 40.0484 72.0015 40.4484C73.4588 40.8485 74.344 42.4669 73.9789 44.0634L71.2592 55.9812ZM38.8107 55.9812C39.1759 57.5778 40.6531 58.5476 42.1104 58.1476C43.5676 57.7475 44.453 56.1289 44.0878 54.5326L41.3681 42.6146C41.003 41.0183 39.5256 40.0484 38.0684 40.4484C36.6111 40.8485 35.7259 42.4669 36.091 44.0634L38.8107 55.9812ZM57.7358 55.2569C57.736 56.8971 56.5259 58.2289 55.0288 58.2363H55.0411C54.3177 58.2399 53.6228 57.9277 53.11 57.3685C52.5973 56.8093 52.3091 56.0495 52.3091 55.2569V43.3391C52.2404 42.2289 52.7419 41.1694 53.6098 40.5914C54.4777 40.0134 55.5672 40.0134 56.435 40.5914C57.3029 41.1694 57.8047 42.2289 57.7358 43.3391V55.2569Z" fill="#5D5D5D"/>
</g>
<defs>
<clipPath id="clip0_261_277">
<rect width="95" height="95" fill="white"/>
</clipPath>
</defs>
</svg>
